<svg version="1.1" xmlns="http://www.w3.org/2000/svg" xmlns:xlink="http://www.w3.org/1999/xlink" width="119.49408" height="95.51599" viewBox="0,0,119.49408,95.51599"><g transform="translate(-180.25296,-132.242)"><g data-paper-data="{&quot;isPaintingLayer&quot;:true}" fill="none" fill-rule="nonzero" stroke="none" stroke-width="none" stroke-linecap="butt" stroke-linejoin="miter" stroke-miterlimit="10" stroke-dasharray="" stroke-dashoffset="0" font-family="none" font-weight="none" font-size="none" text-anchor="none" style="mix-blend-mode: normal"><path d="M222.14185,225.48891c-1.90895,-1.0181 1.0181,-4.07243 1.0181,-4.07243h2.16348c0.56507,0 1.72615,-0.18326 2.59617,-0.13035c0,-0.67771 0,-1.35542 0,-2.03313c0,-2.88464 0,-5.76927 0,-8.65391c0,0 0.00001,-0.34799 0.13957,-0.76484c-1.34895,-0.18567 -2.70743,-0.37077 -4.09041,-0.53399c-6.89212,-0.8134 -17.59195,-1.75736 -21.27009,-8.78906c-0.63454,-1.21308 -0.49175,-2.68683 -0.67837,-4.05011c-3.08095,-0.86838 -6.43345,-1.85871 -9.40525,-1.88013c-1.91486,-0.0138 -3.26546,0.75752 -4.35363,2.04868c-0.09612,0.11405 -0.25513,0.29481 -0.42866,0.50628c0.29478,0.94493 0.56483,2.06228 0.47263,2.82882l0.03797,0.0487c-0.01776,0.01776 -0.03531,0.03535 -0.05268,0.05279c-0.08143,0.47595 -0.32164,0.7944 -0.81271,0.8126l-0.86539,0.86539l-0.13505,-0.13506c-0.47783,0.24554 -1.09928,0.44391 -2.0789,0.6577c-0.44561,0.09726 -0.92723,-0.16719 -1.29809,-0.4327c-3.38225,-2.42152 -3.95458,-3.90416 -0.61393,-7.2448c0.30596,-0.30597 0.87041,-0.06568 1.29809,0c0.07263,0.01115 0.16842,0.02244 0.28202,0.03541c3.31908,-5.78709 11.65986,-4.2026 17.90161,-2.61929c-0.10474,-0.35487 -0.21513,-0.70802 -0.3321,-1.05892c0.18187,-0.91478 -1.78698,-2.36069 -2.16348,-3.02886c-1.23595,-2.19342 -2.27401,-6.03902 -2.70719,-8.47267c-1.37296,-7.71348 2.17614,-18.56341 7.56323,-24.05316c1.41161,-1.14055 1.9143,-3.27337 2.99168,-4.70571c1.2823,-1.70477 3.54797,-3.97516 5.35267,-5.19566c7.37294,-4.9863 15.90738,-8.0747 24.32143,-11.1472c7.80143,-2.82755 15.82028,-2.62014 23.8051,-0.45784c2.33265,0.63169 5.07073,1.24405 7.15965,2.49101c3.31795,1.98062 5.87311,6.46847 8.01826,9.51673c3.46109,4.94413 7.07713,11.03406 9.03262,16.76914c1.51254,4.43599 0.8906,9.57272 0.8906,14.18652c0,4.2486 0.69516,8.98864 -1.58151,12.71828c-1.17397,1.90648 -2.00692,3.98892 -3.1784,5.88797c-0.38537,0.62471 -0.79906,1.21197 -1.23589,1.76989c0.22088,-0.03945 0.37076,-0.03945 0.37076,-0.03945c3.21864,0 6.23359,0.68464 9.38485,1.31489c1.86498,0.373 4.84794,0.97006 6.27264,2.36439c1.31804,1.28994 2.07915,2.71348 2.51527,4.28906c0.76433,0.33375 1.29852,1.09632 1.29852,1.98365c0,0.59742 -0.24216,1.1383 -0.63367,1.52981l-0.23193,0.23194c-0.01642,1.17027 -0.96202,2.11587 -2.13229,2.13229l-0.10138,0.10138c-1.08034,1.52738 -0.13056,0.13056 -0.13056,0.13056l-0.86539,0.86539c-1.30833,0.28846 -2.58524,0.86539 -3.925,0.86539c-1.62966,0 -1.9112,-2.8335 -2.0011,-4.46067c-0.06652,-1.20417 1.79372,-2.95354 3.54423,-3.57733c0.06594,-0.08594 0.13819,-0.16679 0.21605,-0.24186c-0.47395,-0.38988 -0.96344,-0.68908 -1.25927,-0.84029c-3.41823,-1.74723 -8.11048,-2.36165 -11.95098,-2.36165c0,0 -2.16348,0 -2.16348,-2.16348c0,-0.03305 0.0005,-0.0656 0.0015,-0.09764c-1.92696,1.95869 -4.11034,3.62233 -6.22945,5.49096c-3.47638,3.06548 -6.87361,5.88518 -11.51256,7.15484c-1.97648,0.54095 -4.90267,0 -6.92312,0c0,0 -0.36513,0 -0.79539,-0.15c-0.71692,0.30221 -1.46011,0.0854 -1.46011,0.0854l-1.73078,-0.4327c-1.9987,-0.60285 -4.26044,-0.60647 -6.48854,-0.54248c0.18322,0.22186 0.30223,0.46907 0.37954,0.6966c0.09256,0.24084 0.14329,0.50244 0.14329,0.77588c0,1.15386 0,2.3077 0,3.46156c0,1.87501 0,3.75003 0,5.62504c0,0.6169 0,1.23382 0,1.85072c0.99496,-0.74824 3.73491,-0.11994 5.19235,-0.11994h1.29808c0,0 3.0002,2.76352 1.20008,3.9636c-1.80012,1.20008 -1.20008,0.36336 -1.20008,0.36336h-1.29808c-3.60001,0 -6.46228,0.55388 -9.5193,-2.16348c-0.6468,-0.57493 0,-1.73079 0,-2.59618c0,-2.3077 0,-4.61542 0,-6.92313v-2.16348l-1.09711,-1.09711l1.47804,-1.47805c0.02477,-0.03884 0.05114,-0.07733 0.07923,-0.11526c-0.21711,-0.00055 -0.43227,-0.00324 -0.64516,-0.00865c-2.31182,-0.05871 -4.54082,-0.27042 -6.75365,-0.54025c0.01553,0.12995 0.01553,0.21046 0.01553,0.21046c0,3.46157 0,6.92312 0,10.38469c0,0.86539 0.61192,1.98425 0,2.59617c-2.59429,2.59429 -3.89736,2.16348 -6.92312,2.16348h-2.16348c0,0 0.89085,0.76358 -1.0181,-0.25453zM207.08563,195.5468c-0.1429,0.5716 -0.40255,0.94862 -0.70476,1.19464c0.07029,1.0614 0.10304,2.13537 0.58587,3.05843c0.15101,0.2887 0.66303,0.1216 0.92531,0.31488c0.58055,0.42782 0.93744,1.12882 1.55007,1.50927c1.20738,0.7498 3.80581,1.08291 5.20436,1.54905c7.69375,2.56439 16.34309,3.22443 24.44804,3.43027c3.81686,0.09693 7.6833,-0.2297 11.41726,0.59881l1.73078,0.43269c0,0 0.12714,0.03688 0.31103,0.12248c0.47196,-0.18708 0.89503,-0.18708 0.89503,-0.18708c1.95542,0 5.02163,0.58759 6.92312,0c3.27832,-1.01306 5.97143,-3.69931 8.45294,-5.88751c2.18518,-1.92689 4.59207,-3.48318 6.53722,-5.69219c2.27334,-2.58173 3.50058,-5.76737 5.26412,-8.67784c1.76477,-2.89103 0.9478,-7.01499 0.9478,-10.46382c0,-4.34285 0.61695,-9.16301 -0.80657,-13.33793c-1.73521,-5.08904 -5.22664,-10.74675 -8.32826,-15.12753c-1.98621,-2.82243 -4.42896,-7.13492 -7.53931,-8.94732c-1.24282,-0.72419 -3.78957,-0.98636 -5.22762,-1.37318c-7.12122,-1.91553 -14.25397,-2.21103 -21.19333,0.34483c-8.35072,3.04937 -16.50004,6.14946 -23.87054,10.95291c-3.29634,2.14827 -4.67483,6.2672 -7.19106,9.06183c-4.68231,4.77154 -7.56074,14.33859 -6.32464,21.02255c0.38407,2.0768 1.51287,5.21245 2.48515,7.10437c0.22819,0.44403 0.94969,0.458 1.20813,0.88512c0.405,0.66933 0.6369,1.42916 0.95534,2.14374c0.34955,1.04865 0.64022,2.11681 0.91182,3.1883l0.31991,1.27963c0.19032,0.37573 0.27137,0.86627 0.11279,1.50059z" data-paper-data="{&quot;origPos&quot;:null}" fill="#302020" stroke-width="0.5"/><path d="M207.04434,195.57498c0.15858,-0.63432 0.07665,-1.1262 -0.11367,-1.50193l-0.32072,-1.28095c-0.2716,-1.07149 -0.5642,-2.14322 -0.91375,-3.19187c-0.31844,-0.71458 -0.55156,-1.47711 -0.95656,-2.14644c-0.25844,-0.42712 -0.98053,-0.44257 -1.20872,-0.8866c-0.97228,-1.89192 -2.10356,-5.03648 -2.48763,-7.11328c-1.2361,-6.68396 1.64522,-16.27872 6.32753,-21.05026c2.51623,-2.79463 3.90305,-6.92724 7.19939,-9.07551c7.3705,-4.80345 15.55367,-7.92085 23.90439,-10.97022c6.93936,-2.55586 14.09996,-2.25455 21.22118,-0.33902c1.43805,0.38682 3.99032,0.65245 5.23314,1.37664c3.11035,1.8124 5.56359,6.13509 7.5498,8.95752c3.10162,4.38078 6.60216,10.05811 8.33737,15.14715c1.42352,4.17492 0.80741,9.01156 0.80741,13.35441c0,3.44883 0.81397,7.58499 -0.9508,10.47602c-1.76354,2.91047 -2.99646,6.1068 -5.2698,8.68853c-1.94515,2.20901 -4.35891,3.77322 -6.54409,5.70011c-2.48151,2.1882 -5.18501,4.88191 -8.46333,5.89497c-1.90149,0.58759 -4.97518,0.00328 -6.9306,0.00328c0,0 -0.42422,0.00038 -0.89618,0.18746c-0.18389,-0.0856 -0.31136,-0.12238 -0.31136,-0.12238l-1.73281,-0.43211c-3.73396,-0.82851 -7.61632,-0.50033 -11.43318,-0.59726c-8.10495,-0.20584 -16.78371,-0.87787 -24.47746,-3.44226c-1.39855,-0.46614 -4.0011,-0.80322 -5.20848,-1.55302c-0.61263,-0.38045 -0.97116,-1.08331 -1.55171,-1.51113c-0.26228,-0.19328 -0.7749,-0.02691 -0.92591,-0.31561c-0.48283,-0.92306 -0.51752,-1.99961 -0.58781,-3.06101c0.30221,-0.24602 0.56147,-0.62361 0.70437,-1.19521z" data-paper-data="{&quot;noHover&quot;:false,&quot;origItem&quot;:[&quot;Path&quot;,{&quot;applyMatrix&quot;:true,&quot;segments&quot;:[[[207.08563,195.5468],[0,0],[-0.1429,0.5716]],[[206.38087,196.74144],[0.30221,-0.24602],[0.07029,1.0614]],[[206.96674,199.79987],[-0.48283,-0.92306],[0.15101,0.2887]],[[207.89205,200.11475],[-0.26228,-0.19328],[0.58055,0.42782]],[[209.44212,201.62402],[-0.61263,-0.38045],[1.20738,0.7498]],[[214.64648,203.17307],[-1.39855,-0.46614],[7.69375,2.56439]],[[239.09452,206.60334],[-8.10495,-0.20584],[3.81686,0.09693]],[[250.51178,207.20215],[-3.73396,-0.82851],[0,0]],[252.24256,207.63484],[[252.55359,207.75732],[-0.18389,-0.0856],[0.47196,-0.18708]],[[253.44862,207.57024],[0,0],[1.95542,0]],[[260.37174,207.57024],[-1.90149,0.58759],[3.27832,-1.01306]],[[268.82468,201.68273],[-2.48151,2.1882],[2.18518,-1.92689]],[[275.3619,195.99054],[-1.94515,2.20901],[2.27334,-2.58173]],[[280.62602,187.3127],[-1.76354,2.91047],[1.76477,-2.89103]],[[281.57382,176.84888],[0,3.44883],[0,-4.34285]],[[280.76725,163.51095],[1.42352,4.17492],[-1.73521,-5.08904]],[[272.43899,148.38342],[3.10162,4.38078],[-1.98621,-2.82243]],[[264.89968,139.4361],[3.11035,1.8124],[-1.24282,-0.72419]],[[259.67206,138.06292],[1.43805,0.38682],[-7.12122,-1.91553]],[[238.47873,138.40775],[6.93936,-2.55586],[-8.35072,3.04937]],[[214.60819,149.36066],[7.3705,-4.80345],[-3.29634,2.14827]],[[207.41713,158.42249],[2.51623,-2.79463],[-4.68231,4.77154]],[[201.09249,179.44504],[-1.2361,-6.68396],[0.38407,2.0768]],[[203.57764,186.54941],[-0.97228,-1.89192],[0.22819,0.44403]],[[204.78577,187.43453],[-0.25844,-0.42712],[0.405,0.66933]],[[205.74111,189.57827],[-0.31844,-0.71458],[0.34955,1.04865]],[[206.65293,192.76657],[-0.2716,-1.07149],[0,0]],[[206.97284,194.0462],[0,0],[0.19032,0.37573]],[[207.08563,195.54679],[0.15858,-0.63432],[0,0]]],&quot;closed&quot;:true,&quot;fillColor&quot;:[0,0,0],&quot;strokeWidth&quot;:0.5}]}" fill="#e0c858" stroke-width="0.25"/></g></g></svg>