<svg version="1.1" xmlns="http://www.w3.org/2000/svg" xmlns:xlink="http://www.w3.org/1999/xlink" width="466.5358" height="106.49596" viewBox="0,0,466.5358,106.49596"><g transform="translate(-7.5142,-5.95148)"><g data-paper-data="{&quot;isPaintingLayer&quot;:true}" fill="#000000" fill-rule="nonzero" stroke="#ffffff" stroke-width="2.5" stroke-linecap="butt" stroke-linejoin="miter" stroke-miterlimit="10" stroke-dasharray="" stroke-dashoffset="0" font-family="none" font-weight="none" font-size="none" text-anchor="none" style="mix-blend-mode: normal"><path d="M8.79745,103.88933c0.02065,-0.29009 -0.00138,-2.52963 -0.00138,-2.52963l-0.03187,-84.88743c0,0 0.02075,-1.49164 0.0358,-2.80612c0.06188,-5.40323 1.62111,-6.43147 4,-6.46461c0.70244,-0.00978 1.8,-0.00316 1.8,-0.00316l450.6,0.00311c0,0 1.58532,0.00001 2.6,0.00001c1.95131,0.00001 5,4.11312 5,6.74571c0,1.42598 0,3.65391 0,3.65391v84.60207c0,0 0,1.71378 0,2.8107c0,2.41321 -3.17063,6.18354 -5.2,6.18354c-1.17079,0 -3,0 -3,0h-448.4c0,0 -2.47211,0.01997 -2.6,0c-4.58587,-0.71617 -5.30777,-0.20977 -4.80255,-7.30811z" data-paper-data="{&quot;origPos&quot;:null}"/></g></g></svg>