<svg version="1.1" xmlns="http://www.w3.org/2000/svg" xmlns:xlink="http://www.w3.org/1999/xlink" width="377.50338" height="138.28804"><g transform="translate(-55.78277,-103.345)"><g data-paper-data="{&quot;isPaintingLayer&quot;:true}" fill="none" fill-rule="nonzero" stroke="none" stroke-width="none" stroke-linecap="butt" stroke-linejoin="miter" stroke-miterlimit="10" stroke-dasharray="" stroke-dashoffset="0" font-family="none" font-weight="none" font-size="none" text-anchor="none" style="mix-blend-mode: normal"><path d="M72.2161,230.94112v-84.86667h125.4v84.86667z" data-paper-data="{&quot;origPos&quot;:null}" fill="#000000" stroke="#ffffff" stroke-width="5"/><path d="M64.6161,217.00779v-84.86667h125.4v84.86667z" data-paper-data="{&quot;origPos&quot;:null}" fill="#000000" stroke="#ffffff" stroke-width="5"/><path d="M58.28277,201.80779v-84.86667h125.4v84.86667z" data-paper-data="{&quot;origPos&quot;:null}" fill="#000000" stroke="#ffffff" stroke-width="5"/><path d="M418.74589,173.91904c-1.20229,1.30552 -3.41257,2.84786 -7.15304,2.84786h-1.0262c-0.63151,0.03643 -1.12336,0.05465 -1.53626,0.05465c-0.24896,0 -0.51006,0.01822 -0.77724,0.04251c-0.20645,0.07287 -0.61936,0.2186 -1.3541,0.50399c-1.99775,0.80153 -3.54616,1.16586 -5.02777,1.16586c-2.07669,0 -4.03193,-0.74081 -5.64714,-2.13741c-0.95333,-0.81975 -1.68807,-1.80344 -2.17992,-2.89036c-0.77117,-0.06072 -1.74879,-0.1518 -2.99966,-0.2611h-3.16361c-0.14573,0 -0.28539,-0.00607 -0.42505,-0.01822c-1.57877,-0.09716 -3.10289,-0.55257 -4.51771,-1.3541c-2.62926,-1.48769 -4.19588,-4.05015 -4.19588,-6.8555c0,-3.06038 1.71236,-5.7868 4.5845,-7.29877c0.09108,-0.05465 0.18824,-0.10323 0.28539,-0.14573c0.20645,-0.09716 0.41291,-0.18217 0.61936,-0.26718c0.00607,-0.1518 0.00607,-0.30968 0.01214,-0.46756v-4.33554c0,-0.18217 0.00607,-0.35826 0.01822,-0.53435c-0.34004,-1.42696 -0.30361,-2.88429 0.1093,-4.23232c0,-0.07894 0,-0.18217 -0.00607,-0.31575c-0.01214,-0.13359 -0.01214,-0.26718 -0.01214,-0.39469c0,-0.46149 0.03036,-0.99584 0.11537,-1.77915c0.01822,-0.20038 0.03643,-0.35826 0.04251,-0.48578c-0.00607,-0.14573 -0.04251,-0.81975 -0.23074,-2.97537c-3.56438,-1.37839 -5.29495,-4.45092 -5.68357,-7.17733c-0.18824,-1.31159 0.01822,-2.65962 0.60115,-3.85584c1.64556,-3.39435 4.99134,-5.42247 8.95041,-5.42247c0.24289,0 0.48578,0.01214 0.72259,0.03643c0.25503,0.02429 1.03834,0.09108 2.33779,0.20038c1.11728,0.09716 1.73057,0.11537 2.05847,0.11537h0.2186c0.10323,-0.01214 0.18217,-0.01822 0.28539,-0.02429c1.12336,-0.06072 1.87631,-0.10323 2.25278,-0.12752c0.02429,0 0.05465,-0.00607 0.07894,-0.00607c0.12752,-0.12752 0.2611,-0.25503 0.40076,-0.37648c1.9431,-1.70629 4.37198,-2.5989 7.02552,-2.5989c0.9169,0 1.60913,0.01214 2.12527,0.03643c0.41291,0.01822 0.74688,0.04858 1.05656,0.09108c0.07287,0.00607 0.1518,0.01822 0.23074,0.03643h2.46531c0.11537,-0.01214 0.26718,-0.03036 0.46149,-0.04858c0.75902,-0.07894 1.36017,-0.11537 1.88845,-0.11537c3.79512,0 6.84943,1.86416 8.22782,5.00956c0.52828,1.14764 0.80153,2.33779 0.80153,3.54009c0,2.82357 -1.56663,5.82323 -4.97312,7.2502c0.1093,2.21635 0.16395,4.38412 0.16395,6.49724v13.96604c0.01214,0.12144 0.03643,0.26718 0.06072,0.4372c0.00607,0.04251 0.01214,0.09108 0.01822,0.13359c0.06072,0.4372 0.1093,0.8744 0.14573,1.31159c2.76285,1.19622 4.63308,3.71618 4.88204,6.93444c0.13359,1.59699 -0.18217,3.953 -2.33779,6.29079z" data-paper-data="{&quot;origPos&quot;:null}" id="ID0.5178547315299511" fill="#ffa100" stroke="#ffffff" stroke-width="25"/><path d="M367.59315,134.0132c-0.02429,0.10323 -0.04251,0.20645 -0.07287,0.30968c-0.09108,0.38255 -0.27932,1.2873 -0.46756,3.05431c0,0.03036 0,0.05465 -0.00607,0.07287c1.03834,4.17767 -0.71045,6.72192 -1.87023,7.8817c-0.07287,0.07894 -0.1518,0.1518 -0.23682,0.22467c-1.1355,1.03227 -3.12111,2.26493 -6.08434,2.26493c-1.47554,0 -2.85393,-0.3279 -4.05622,-0.92905c0.03036,1.65771 0.04858,3.94085 0.04858,7.11054c1.09299,0.38255 2.09491,1.00191 2.94501,1.81559c1.68807,1.62127 2.61104,3.78905 2.61104,6.10255c0,3.43686 -1.97953,6.42438 -5.16743,7.79062c-0.07894,0.03643 -0.16395,0.07287 -0.24289,0.10323c-1.06871,0.40684 -2.271,0.60722 -3.67975,0.60722c-0.51006,0 -1.05656,-0.02429 -1.65164,-0.07894c-0.36433,-0.01822 -0.89868,-0.01214 -1.53019,0.00607c-1.14764,0.12752 -2.76285,0.25503 -4.92455,0.37648c-0.04251,0 -0.08501,0.00607 -0.13359,0.00607c-0.28539,0.01214 -0.55864,0.01822 -0.82582,0.01822c-3.86799,0 -6.69155,-1.22658 -8.39784,-3.63724c-0.03643,-0.04858 -0.06679,-0.09716 -0.09716,-0.14573c-1.73665,-2.59283 -1.78522,-5.87181 -0.13359,-8.54964c0.01214,-0.03036 0.03036,-0.05465 0.04858,-0.08501c1.05049,-1.65164 2.58675,-2.82964 4.57843,-3.52187c0.02429,-1.17193 0.01822,-2.6414 -0.01822,-4.38412c-0.98977,0.41291 -2.13134,0.6558 -3.41257,0.6558c-3.38221,0 -6.17542,-2.0099 -7.14697,-5.06421c-0.20038,-0.61936 -0.38862,-1.52412 -0.82582,-3.56438c-0.01822,-0.07287 -0.03036,-0.14573 -0.04251,-0.2186l-0.89868,-5.0217c-0.03036,-0.1093 -0.07287,-0.23682 -0.12144,-0.38255c-0.46756,-1.32981 -0.68616,-2.45924 -0.68616,-3.55223c0,-1.3541 0.39469,-3.40043 2.26493,-5.44068c0.94119,-1.03227 2.65355,-2.36815 5.41032,-2.79928c0.34004,-0.05465 0.68616,-0.08501 1.03227,-0.08501h6.71584c0.1518,0 0.30361,0.00607 0.45541,0.01822c2.56246,0.09108 4.85775,0.08501 6.82514,-0.00607c2.7507,-0.12144 5.49533,-0.35826 8.18531,-0.70437c0.30361,-0.09716 0.63151,-0.19431 0.98369,-0.27932c0.33397,-0.08501 0.67401,-0.13966 1.01406,-0.17609c2.58675,-0.23682 4.99741,0.51006 6.87372,2.11312c2.32565,1.99775 3.35185,5.0217 2.73856,8.09423z" data-paper-data="{&quot;origPos&quot;:null}" id="ID0.06298611359670758" fill="#ffa100" stroke="#ffffff" stroke-width="25"/><path d="M339.15707,162.19363c-0.06679,0.08501 -0.13359,0.17002 -0.21253,0.25503c-1.31159,1.49983 -3.01181,2.25886 -4.20196,2.69605c-2.25278,0.88654 -4.18374,1.96132 -5.73215,3.19397c-0.07894,0.06679 -0.15788,0.12752 -0.24289,0.18824c-1.5059,1.08692 -3.38828,1.66378 -5.76858,1.74272c-0.07894,0.00607 -0.15788,0.00607 -0.23682,0.00607c-1.84595,0 -3.61903,-0.6558 -5.12493,-1.89452c-0.73474,-0.60115 -1.34195,-1.31159 -1.80951,-2.09491c-0.97762,0.37648 -2.02811,0.57079 -3.10289,0.57079c-0.40076,0 -0.78331,-0.03036 -1.15979,-0.09716c-0.25503,-0.03643 -0.78938,-0.1093 -1.6152,-0.22467c-0.17002,-0.01822 -0.97762,-0.09716 -4.56629,-0.39469c-0.03643,0 -0.07287,-0.00607 -0.1093,-0.01214c-2.57461,-0.25503 -4.26875,-0.73474 -5.6775,-1.60306c-0.06679,-0.03643 -0.13359,-0.07894 -0.19431,-0.12752c-2.1617,-1.43911 -3.45508,-3.83762 -3.45508,-6.40616c0,-4.15338 2.75677,-7.402 6.86158,-8.08816c0.05465,-0.00607 0.10323,-0.01214 0.15788,-0.02429c0.49185,-0.06679 1.00798,-0.09716 1.53626,-0.10323c0.01214,-0.09108 0.03036,-0.18217 0.04858,-0.27932c0.02429,-0.13359 0.05465,-0.26718 0.09108,-0.40076c0.54042,-2.14956 1.09907,-4.61487 1.67592,-7.38378c-2.19206,-0.35219 -3.67975,-1.6152 -4.22017,-2.07669c-0.92905,-0.78938 -1.62735,-1.82166 -2.01597,-2.97537c-0.93512,-2.81142 -0.20645,-5.87181 1.90667,-7.991c1.30552,-1.30552 2.93287,-2.1617 4.6938,-2.47138c0.38255,-0.06679 0.97762,-0.17609 1.7913,-0.34004l0.09108,-0.01822c1.80344,-0.33397 3.87406,-0.57686 6.3333,-0.74081c1.77308,-0.12144 1.77308,-0.12144 2.04026,-0.12144c0.27932,0 0.55864,0.01822 0.83796,0.05465c2.5989,0.3279 4.85775,1.79737 6.18756,4.04408c0.61936,1.03834 1.11121,2.30743 1.56663,4.00765c0.27325,1.00798 0.40684,1.45125 0.46149,1.6152c0.12144,0.28539 0.29754,0.68009 0.52221,1.18408c0.09108,0.20038 0.17002,0.40684 0.23682,0.61329c0.00607,0.01214 0.11537,0.3279 0.53435,1.23873c0.03036,0.07287 0.06072,0.13966 0.09108,0.21253c0.81975,1.95525 2.10098,5.01563 3.8437,9.18115c0.03036,0.07894 0.06679,0.15788 0.09716,0.23682c0.18824,0.50399 0.41291,1.09907 0.67401,1.77915c2.17992,-0.16395 4.29911,0.52828 6.0479,1.96132c0.17609,0.13966 0.34611,0.29147 0.50399,0.44934c1.66378,1.66378 2.01597,3.72833 2.13134,4.40841c0.03036,0.20645 0.05465,0.41291 0.07287,0.62544c0.20038,2.72034 -0.75295,4.54807 -1.59091,5.60463zM310.78173,166.57776c-0.75902,-0.23682 -1.46947,-0.60115 -2.08883,-1.06871c0.61936,0.47363 1.32374,0.84403 2.08883,1.06871z" data-paper-data="{&quot;origPos&quot;:null}" id="ID0.17456053430214524" fill="#ffa100" stroke="#ffffff" stroke-width="25"/><g data-paper-data="{&quot;origPos&quot;:null}" id="ID0.8163827913813293" fill="#ffa100" stroke="#ffffff" stroke-width="25"><path d="M304.37617,160.85836c0.14148,0.53435 -0.09776,1.34499 -0.72016,2.4307c-0.62119,1.08631 -1.2782,1.86052 -1.97103,2.32322c-0.69284,0.4627 -1.76761,0.7657 -3.22312,0.90779c-1.17254,0.10687 -2.26493,-0.40987 -3.27655,-1.54902c-1.01284,-1.13914 -1.58909,-2.40337 -1.73118,-3.79208c-0.39166,-3.91656 -0.88897,-6.72981 -1.49254,-8.43913c-0.07165,-0.42688 -0.26657,-1.05838 -0.58657,-1.89574c-0.3194,-0.83614 -1.04745,-1.5223 -2.18417,-2.05665c-0.85314,-0.32 -1.72268,-0.65823 -2.61043,-1.01466c-0.14209,-0.03522 -0.3194,-0.03522 -0.53253,0c-0.49731,0.14209 -1.52837,0.42688 -3.09075,0.85436v1.01466v4.16613c0,0.07165 0.02672,0.40987 0.08015,1.01466c0.05344,0.606 0.08015,1.03349 0.08015,1.28184c0.07104,0.606 0.16091,2.20846 0.26718,4.80675c0.24835,0.10748 0.51553,0.10748 0.80092,0c0.96123,-0.39166 1.81559,-0.48031 2.56368,-0.26657c0.53435,0.17852 0.80092,0.606 0.80092,1.28184c0,0.99766 -0.52524,1.59395 -1.57573,1.78887c-1.05049,0.19613 -2.5904,0.47242 -4.61972,0.82825c-1.63828,0.32 -2.84907,0.48031 -3.63178,0.48031c-1.21079,0 -2.04815,-0.28479 -2.51024,-0.85436c-0.10687,-1.17558 0.49792,-1.88663 1.81559,-2.1368c1.06871,-0.10687 2.1368,-0.23135 3.2043,-0.37405c0.14209,-0.17731 0.21435,-0.37344 0.21435,-0.58718c-0.03643,-0.81914 -0.23196,-3.75686 -0.58779,-8.81318c-0.10687,-1.21019 -0.1427,-2.1368 -0.10687,-2.77742c-0.64122,-0.03522 -1.06871,-0.08865 -1.28184,-0.16031c-0.53435,-0.17792 -0.87318,-0.51614 -1.01466,-1.01466v-0.16091c0.07044,-0.03522 0.12387,-0.21374 0.16031,-0.53375c0.49792,-0.78331 1.13914,-1.08571 1.92306,-0.9084c0.07044,-0.21374 0.05344,-0.78271 -0.05404,-1.70871c-0.32,-3.38221 -0.51674,-6.08859 -0.58718,-8.11852c-0.1427,-0.14148 -0.4457,-0.17792 -0.9084,-0.10687c-0.71227,0.1427 -1.08631,0.21374 -1.12153,0.21374c-1.92306,0 -2.84907,-0.46209 -2.77742,-1.38871c0.07104,-0.85436 0.80092,-1.36989 2.18963,-1.54902c1.24601,-0.24835 3.86313,-0.64062 7.85195,-1.17497c-0.17852,0.03583 1.08571,0.08865 3.79208,0.16031c3.13264,0.24957 5.32288,0.76631 6.5695,1.54902c1.35288,0.89079 2.26068,2.06515 2.72338,3.52551c0.14148,0.46331 0.17792,1.15736 0.10687,2.08337c-0.03583,0.92601 -0.17852,1.58423 -0.42688,1.97589c-0.81975,1.49558 -2.47503,2.83086 -4.96766,4.00643c0,0.10687 0.01761,0.17852 0.05344,0.21374c0.89018,0.64122 1.49558,1.21079 1.81619,1.70871c0.92479,1.49558 1.54902,3.66821 1.86902,6.51607c0.4627,3.88195 0.83614,6.32054 1.12153,7.3176c0.03583,0.21374 0.28479,0.55196 0.74749,1.01466c0.4627,0.46392 0.83675,0.71288 1.12214,0.74749c1.10271,0.07165 1.78037,-0.42688 2.02993,-1.49558c-0.03643,-0.39166 0.12387,-0.9254 0.48031,-1.60245c0.49853,-0.4627 1.10332,-0.69466 1.81619,-0.69466c0.71348,0.00121 1.17618,0.32243 1.39053,0.96244zM293.69397,142.11108c0.32,-0.32 0.48031,-0.81853 0.48031,-1.49558c0,-1.81559 -0.64122,-3.11503 -1.92246,-3.89895c-1.28184,-0.78271 -4.05987,-1.13914 -8.33287,-1.0681c-0.32,0 -0.80092,0.14209 -1.44215,0.42688c0.10748,0.53435 0.10748,0.97944 0,1.33527c-0.03583,0.53435 -0.03583,1.03288 0,1.49558c0.01761,0.96123 0.05404,2.15502 0.10748,3.57895c0.17731,2.10098 0.26657,3.27655 0.26657,3.52491c0.60479,-0.03522 1.49558,-0.21374 2.67055,-0.53375c0.17731,-0.17792 0.42688,-0.37405 0.74749,-0.58779c0.24835,-0.07104 0.88958,-0.10687 1.92246,-0.10687c1.95889,0.00061 3.7933,-0.88897 5.50262,-2.67055z" id="ID0.6007779934443533"/><path d="M298.1625,173.21345c-2.0943,0 -5.17715,-0.66065 -7.97157,-3.80666c-0.04615,-0.05222 -0.09169,-0.10444 -0.13784,-0.15727c-0.85254,0.48638 -1.81255,0.83918 -2.85818,1.03349c-1.04988,0.19552 -2.59343,0.47302 -4.62337,0.82885c-2.07669,0.4038 -3.61903,0.59204 -4.84804,0.59204c-4.13395,0 -6.4681,-1.80951 -7.69893,-3.32756c-0.83432,-1.02863 -1.34378,-2.28314 -1.4634,-3.60202c-0.34186,-3.76719 1.59456,-7.01824 4.87901,-8.55329c-0.04797,-0.69769 -0.10262,-1.48829 -0.16516,-2.38212c-1.05353,-0.98795 -1.83016,-2.25278 -2.24307,-3.70647c-0.16881,-0.59386 -0.25442,-1.20837 -0.25442,-1.82591v-0.16091c0,-0.75659 0.12812,-1.49437 0.36737,-2.1866c0.17427,-0.68191 0.45541,-1.33406 0.83553,-1.93156c0.19735,-0.31029 0.40866,-0.60418 0.63272,-0.88229c-0.00486,-0.05344 -0.00972,-0.10748 -0.01336,-0.16091c-1.08328,-0.40623 -2.19995,-1.05595 -3.163,-2.09612c-1.46036,-1.57877 -2.17263,-3.64149 -2.00443,-5.80987c0.40137,-4.82739 4.35255,-7.09718 7.72929,-7.6206c1.45004,-0.27811 4.09994,-0.67401 8.08452,-1.20776c0.62483,-0.08319 1.24176,-0.07833 1.83744,0.00729c0.37708,0.017 1.21322,0.04858 3.01727,0.09594c0.11841,0.00304 0.23742,0.00972 0.35522,0.01882c4.31915,0.34369 7.36678,1.15372 9.58981,2.54971c0.04129,0.0255 0.08197,0.05161 0.12266,0.07833c2.62076,1.72632 4.49403,4.17585 5.417,7.08443c0.00668,0.02186 0.01336,0.04311 0.02004,0.06497c0.38862,1.2697 0.51249,2.67844 0.38862,4.42602c-0.09108,1.97285 -0.52282,3.59292 -1.31767,4.93973c-0.46088,0.8161 -1.01588,1.58423 -1.66803,2.30804c0.55621,1.58423 0.96123,3.38221 1.22476,5.42186c0.24896,-0.01882 0.50035,-0.02854 0.75417,-0.02854c3.57045,0 6.60229,2.16777 7.72383,5.52326c0.04433,0.1342 0.08501,0.26839 0.12084,0.40502c0.9169,3.45447 -0.81185,6.47174 -1.3796,7.46333c-1.15068,2.01111 -2.47867,3.50365 -4.05744,4.55779c-1.63646,1.09299 -3.69189,1.74758 -6.28229,2.00139c-0.34551,0.03279 -0.64972,0.04615 -0.9503,0.04615z" id="ID0.0849599870853126"/></g><path d="M278.52625,159.74047c-0.42505,4.5845 -1.80344,8.06387 -4.20196,10.59597c-1.3966,1.47554 -3.46722,2.6414 -6.91623,3.88013c-0.06679,0.02429 -0.13966,0.04858 -0.21253,0.07287c-1.65164,0.52828 -3.45508,0.80153 -5.35567,0.80153c-2.89644,0 -5.58642,-0.57079 -7.99708,-1.69414c-3.56438,-1.66378 -5.33746,-3.98943 -6.21792,-5.95075c-0.12752,-0.21253 -0.2611,-0.43113 -0.38862,-0.66794c-0.36433,-0.66187 -0.61936,-1.37839 -0.74081,-2.12527c-0.17609,-1.04442 -0.45541,-2.61711 -0.83796,-4.70595c-0.07287,-0.40076 -0.1093,-0.80153 -0.1093,-1.20837v-5.28281c0,-0.6558 0.05465,-1.6152 0.44934,-4.2141c0.38255,-2.54425 0.5465,-3.33363 0.85011,-4.11087c0.79546,-2.11919 3.17576,-8.34926 8.94434,-9.58192c1.89452,-0.40076 4.02586,-0.45541 6.04183,-0.23682c1.42696,-2.28922 3.97729,-3.65546 6.87372,-3.65546c5.02777,0 7.80884,3.31542 8.33105,6.5944c0.05465,0.34611 0.07894,0.6983 0.07894,1.05049v8.43427c0,0.00607 0,0.01214 0,0.01214c0,0.00607 0,0.00607 0,0.01214c0,0 0,0 0,0.00607c0,0.55257 -0.07287,1.08085 -0.19431,1.59699c1.17193,1.32981 1.82166,2.9693 1.85202,4.72416c0.03643,1.76094 -0.04858,3.6676 -0.24896,5.65321z" data-paper-data="{&quot;origPos&quot;:null}" id="ID0.6895651021040976" fill="#ffa100" stroke="#ffffff" stroke-width="25"/><path d="M250.27234,158.02933c-1.96132,5.43461 -7.2927,8.73788 -15.84235,9.81873c-0.38862,0.04858 -0.77117,0.07894 -1.15372,0.09108c-0.49792,0.72866 -1.14764,1.36017 -1.91274,1.85202c-2.00382,1.28123 -3.88013,1.90667 -5.73215,1.90667c-3.80726,0 -7.90599,-2.84179 -7.90599,-9.084c0,-0.42505 0.01822,-0.97762 0.06072,-1.74272c0.01822,-0.3279 0.03643,-0.58293 0.04251,-0.77117c-0.10323,-0.47363 -0.15788,-0.95333 -0.15788,-1.43911v-2.93894c0,-0.4797 0.04858,-0.95941 0.14573,-1.43911c0.00607,-0.40684 0.02429,-0.86225 0.05465,-1.36017c-0.14573,-0.53435 -0.25503,-1.15372 -0.25503,-1.84595c0,-0.31575 0.02429,-0.63151 0.06679,-0.94119c0.23074,-1.62735 0.95333,-3.26077 2.17384,-4.56629c-0.41898,-1.17193 -0.63758,-2.41066 -0.63758,-3.67975v-3.09682c0,-1.25694 0.24896,-2.82357 1.46947,-6.72192c0.51006,-1.67592 0.67401,-2.19813 0.89868,-2.68391c1.19622,-2.68391 2.99966,-4.02586 4.31126,-4.68773c2.14348,-1.06871 4.44484,-1.6152 6.83729,-1.6152c1.10514,0 2.1617,0.11537 3.16968,0.33397c0.44934,-0.30361 0.92905,-0.55864 1.43911,-0.77117c0.64972,-0.27932 1.34195,-0.47363 2.10705,-0.59507c1.91274,-0.3279 3.93478,0.07894 5.69572,1.14764c1.85202,1.12943 3.97729,3.47329 3.71618,8.29461c-0.04251,0.85011 -0.11537,1.98561 -0.22467,3.46722c-0.00607,0.03643 -0.00607,0.07287 -0.01214,0.1093c-0.09716,1.07478 -0.23682,2.67784 -0.42505,4.79703c0.04858,0.81975 0.03036,1.73665 -0.04251,2.8175c-0.03036,0.41291 -0.09716,0.82582 -0.20645,1.22658c-0.02429,0.09108 -0.04858,0.17609 -0.07287,0.25503c0.81975,1.05049 1.37839,2.10098 1.76094,3.01181c0.35826,0.72259 0.66187,1.55448 0.92905,2.56854c0.10323,0.38255 0.17002,0.77117 0.20038,1.16586c0.27325,3.4065 0.13359,5.41639 -0.49792,7.11661z" data-paper-data="{&quot;origPos&quot;:null}" id="ID0.1519448710605502" fill="#ffa100" stroke="#ffffff" stroke-width="25"/><path d="M387.21847,157.31159c-0.42505,4.5845 -1.80344,8.06387 -4.20196,10.59597c-1.3966,1.47554 -3.46722,2.6414 -6.91623,3.88013c-0.06679,0.02429 -0.13966,0.04858 -0.21253,0.07287c-1.65164,0.52828 -3.45508,0.80153 -5.35567,0.80153c-2.89644,0 -5.58642,-0.57079 -7.99708,-1.69414c-3.56438,-1.66378 -5.33746,-3.98943 -6.21792,-5.95075c-0.12752,-0.21253 -0.2611,-0.43113 -0.38862,-0.66794c-0.36433,-0.66187 -0.61936,-1.37839 -0.74081,-2.12527c-0.17609,-1.04442 -0.45541,-2.61711 -0.83796,-4.70595c-0.07287,-0.40076 -0.1093,-0.80153 -0.1093,-1.20837v-5.28281c0,-0.6558 0.05465,-1.6152 0.44934,-4.2141c0.38255,-2.54425 0.5465,-3.33363 0.85011,-4.11087c0.79546,-2.11919 3.17576,-8.34926 8.94434,-9.58192c1.89452,-0.40076 4.02586,-0.45541 6.04183,-0.23682c1.42696,-2.28922 3.97729,-3.65546 6.87372,-3.65546c5.02777,0 7.80884,3.31542 8.33105,6.5944c0.05465,0.34611 0.07894,0.6983 0.07894,1.05049v8.43427c0,0.00607 0,0.01214 0,0.01214c0,0.00607 0,0.00607 0,0.01214c0,0 0,0 0,0.00607c0,0.55257 -0.07287,1.08085 -0.19431,1.59699c1.17193,1.32981 1.82166,2.9693 1.85202,4.72416c0.03643,1.76094 -0.04858,3.6676 -0.24896,5.65321z" data-paper-data="{&quot;origPos&quot;:null}" id="ID0.6895651021040976" fill="#ffa100" stroke="#ffffff" stroke-width="25"/><path d="M419.35311,174.52625c-1.20229,1.30552 -3.41257,2.84786 -7.15304,2.84786h-1.0262c-0.63151,0.03643 -1.12336,0.05465 -1.53626,0.05465c-0.24896,0 -0.51006,0.01822 -0.77724,0.04251c-0.20645,0.07287 -0.61936,0.2186 -1.3541,0.50399c-1.99775,0.80153 -3.54616,1.16586 -5.02777,1.16586c-2.07669,0 -4.03193,-0.74081 -5.64714,-2.13741c-0.95333,-0.81975 -1.68807,-1.80344 -2.17992,-2.89036c-0.77117,-0.06072 -1.74879,-0.1518 -2.99966,-0.2611h-3.16361c-0.14573,0 -0.28539,-0.00607 -0.42505,-0.01822c-1.57877,-0.09716 -3.10289,-0.55257 -4.51771,-1.3541c-2.62926,-1.48769 -4.19588,-4.05015 -4.19588,-6.8555c0,-3.06038 1.71236,-5.7868 4.5845,-7.29877c0.09108,-0.05465 0.18824,-0.10323 0.28539,-0.14573c0.20645,-0.09716 0.41291,-0.18217 0.61936,-0.26718c0.00607,-0.1518 0.00607,-0.30968 0.01214,-0.46756v-4.33554c0,-0.18217 0.00607,-0.35826 0.01822,-0.53435c-0.34004,-1.42696 -0.30361,-2.88429 0.1093,-4.23232c0,-0.07894 0,-0.18217 -0.00607,-0.31575c-0.01214,-0.13359 -0.01214,-0.26718 -0.01214,-0.39469c0,-0.46149 0.03036,-0.99584 0.11537,-1.77915c0.01822,-0.20038 0.03643,-0.35826 0.04251,-0.48578c-0.00607,-0.14573 -0.04251,-0.81975 -0.23074,-2.97537c-3.56438,-1.37839 -5.29495,-4.45092 -5.68357,-7.17733c-0.18824,-1.31159 0.01822,-2.65962 0.60115,-3.85584c1.64556,-3.39435 4.99134,-5.42247 8.95041,-5.42247c0.24289,0 0.48578,0.01214 0.72259,0.03643c0.25503,0.02429 1.03834,0.09108 2.33779,0.20038c1.11728,0.09716 1.73057,0.11537 2.05847,0.11537h0.2186c0.10323,-0.01214 0.18217,-0.01822 0.28539,-0.02429c1.12336,-0.06072 1.87631,-0.10323 2.25278,-0.12752c0.02429,0 0.05465,-0.00607 0.07894,-0.00607c0.12752,-0.12752 0.2611,-0.25503 0.40076,-0.37648c1.9431,-1.70629 4.37198,-2.5989 7.02552,-2.5989c0.9169,0 1.60913,0.01214 2.12527,0.03643c0.41291,0.01822 0.74688,0.04858 1.05656,0.09108c0.07287,0.00607 0.1518,0.01822 0.23074,0.03643h2.46531c0.11537,-0.01214 0.26718,-0.03036 0.46149,-0.04858c0.75902,-0.07894 1.36017,-0.11537 1.88845,-0.11537c3.79512,0 6.84943,1.86416 8.22782,5.00956c0.52828,1.14764 0.80153,2.33779 0.80153,3.54009c0,2.82357 -1.56663,5.82323 -4.97312,7.2502c0.1093,2.21635 0.16395,4.38412 0.16395,6.49724v13.96604c0.01214,0.12144 0.03643,0.26718 0.06072,0.4372c0.00607,0.04251 0.01214,0.09108 0.01822,0.13359c0.06072,0.4372 0.1093,0.8744 0.14573,1.31159c2.76285,1.19622 4.63308,3.71618 4.88204,6.93444c0.13359,1.59699 -0.18217,3.953 -2.33779,6.29079z" data-paper-data="{&quot;origPos&quot;:null}" id="ID0.5178547315299511" fill="#ffa100" stroke="none" stroke-width="1"/><path d="M368.20036,134.62042c-0.02429,0.10323 -0.04251,0.20645 -0.07287,0.30968c-0.09108,0.38255 -0.27932,1.2873 -0.46756,3.05431c0,0.03036 0,0.05465 -0.00607,0.07287c1.03834,4.17767 -0.71045,6.72192 -1.87023,7.8817c-0.07287,0.07894 -0.1518,0.1518 -0.23682,0.22467c-1.1355,1.03227 -3.12111,2.26493 -6.08434,2.26493c-1.47554,0 -2.85393,-0.3279 -4.05622,-0.92905c0.03036,1.65771 0.04858,3.94085 0.04858,7.11054c1.09299,0.38255 2.09491,1.00191 2.94501,1.81559c1.68807,1.62127 2.61104,3.78905 2.61104,6.10255c0,3.43686 -1.97953,6.42438 -5.16743,7.79062c-0.07894,0.03643 -0.16395,0.07287 -0.24289,0.10323c-1.06871,0.40684 -2.271,0.60722 -3.67975,0.60722c-0.51006,0 -1.05656,-0.02429 -1.65164,-0.07894c-0.36433,-0.01822 -0.89868,-0.01214 -1.53019,0.00607c-1.14764,0.12752 -2.76285,0.25503 -4.92455,0.37648c-0.04251,0 -0.08501,0.00607 -0.13359,0.00607c-0.28539,0.01214 -0.55864,0.01822 -0.82582,0.01822c-3.86799,0 -6.69155,-1.22658 -8.39784,-3.63724c-0.03643,-0.04858 -0.06679,-0.09716 -0.09716,-0.14573c-1.73665,-2.59283 -1.78522,-5.87181 -0.13359,-8.54964c0.01214,-0.03036 0.03036,-0.05465 0.04858,-0.08501c1.05049,-1.65164 2.58675,-2.82964 4.57843,-3.52187c0.02429,-1.17193 0.01822,-2.6414 -0.01822,-4.38412c-0.98977,0.41291 -2.13134,0.6558 -3.41257,0.6558c-3.38221,0 -6.17542,-2.0099 -7.14697,-5.06421c-0.20038,-0.61936 -0.38862,-1.52412 -0.82582,-3.56438c-0.01822,-0.07287 -0.03036,-0.14573 -0.04251,-0.2186l-0.89868,-5.0217c-0.03036,-0.1093 -0.07287,-0.23682 -0.12144,-0.38255c-0.46756,-1.32981 -0.68616,-2.45924 -0.68616,-3.55223c0,-1.3541 0.39469,-3.40043 2.26493,-5.44068c0.94119,-1.03227 2.65355,-2.36815 5.41032,-2.79928c0.34004,-0.05465 0.68616,-0.08501 1.03227,-0.08501h6.71584c0.1518,0 0.30361,0.00607 0.45541,0.01822c2.56246,0.09108 4.85775,0.08501 6.82514,-0.00607c2.7507,-0.12144 5.49533,-0.35826 8.18531,-0.70437c0.30361,-0.09716 0.63151,-0.19431 0.98369,-0.27932c0.33397,-0.08501 0.67401,-0.13966 1.01406,-0.17609c2.58675,-0.23682 4.99741,0.51006 6.87372,2.11312c2.32565,1.99775 3.35185,5.0217 2.73856,8.09423z" data-paper-data="{&quot;origPos&quot;:null}" id="ID0.06298611359670758" fill="#ffa100" stroke="none" stroke-width="1"/><path d="M339.76429,162.80085c-0.06679,0.08501 -0.13359,0.17002 -0.21253,0.25503c-1.31159,1.49983 -3.01181,2.25886 -4.20196,2.69605c-2.25278,0.88654 -4.18374,1.96132 -5.73215,3.19397c-0.07894,0.06679 -0.15788,0.12752 -0.24289,0.18824c-1.5059,1.08692 -3.38828,1.66378 -5.76858,1.74272c-0.07894,0.00607 -0.15788,0.00607 -0.23682,0.00607c-1.84595,0 -3.61903,-0.6558 -5.12493,-1.89452c-0.73474,-0.60115 -1.34195,-1.31159 -1.80951,-2.09491c-0.97762,0.37648 -2.02811,0.57079 -3.10289,0.57079c-0.40076,0 -0.78331,-0.03036 -1.15979,-0.09716c-0.25503,-0.03643 -0.78938,-0.1093 -1.6152,-0.22467c-0.17002,-0.01822 -0.97762,-0.09716 -4.56629,-0.39469c-0.03643,0 -0.07287,-0.00607 -0.1093,-0.01214c-2.57461,-0.25503 -4.26875,-0.73474 -5.6775,-1.60306c-0.06679,-0.03643 -0.13359,-0.07894 -0.19431,-0.12752c-2.1617,-1.43911 -3.45508,-3.83762 -3.45508,-6.40616c0,-4.15338 2.75677,-7.402 6.86158,-8.08816c0.05465,-0.00607 0.10323,-0.01214 0.15788,-0.02429c0.49185,-0.06679 1.00798,-0.09716 1.53626,-0.10323c0.01214,-0.09108 0.03036,-0.18217 0.04858,-0.27932c0.02429,-0.13359 0.05465,-0.26718 0.09108,-0.40076c0.54042,-2.14956 1.09907,-4.61487 1.67592,-7.38378c-2.19206,-0.35219 -3.67975,-1.6152 -4.22017,-2.07669c-0.92905,-0.78938 -1.62735,-1.82166 -2.01597,-2.97537c-0.93512,-2.81142 -0.20645,-5.87181 1.90667,-7.991c1.30552,-1.30552 2.93287,-2.1617 4.6938,-2.47138c0.38255,-0.06679 0.97762,-0.17609 1.7913,-0.34004l0.09108,-0.01822c1.80344,-0.33397 3.87406,-0.57686 6.3333,-0.74081c1.77308,-0.12144 1.77308,-0.12144 2.04026,-0.12144c0.27932,0 0.55864,0.01822 0.83796,0.05465c2.5989,0.3279 4.85775,1.79737 6.18756,4.04408c0.61936,1.03834 1.11121,2.30743 1.56663,4.00765c0.27325,1.00798 0.40684,1.45125 0.46149,1.6152c0.12144,0.28539 0.29754,0.68009 0.52221,1.18408c0.09108,0.20038 0.17002,0.40684 0.23682,0.61329c0.00607,0.01214 0.11537,0.3279 0.53435,1.23873c0.03036,0.07287 0.06072,0.13966 0.09108,0.21253c0.81975,1.95525 2.10098,5.01563 3.8437,9.18115c0.03036,0.07894 0.06679,0.15788 0.09716,0.23682c0.18824,0.50399 0.41291,1.09907 0.67401,1.77915c2.17992,-0.16395 4.29911,0.52828 6.0479,1.96132c0.17609,0.13966 0.34611,0.29147 0.50399,0.44934c1.66378,1.66378 2.01597,3.72833 2.13134,4.40841c0.03036,0.20645 0.05465,0.41291 0.07287,0.62544c0.20038,2.72034 -0.75295,4.54807 -1.59091,5.60463zM311.38895,167.18498c-0.75902,-0.23682 -1.46947,-0.60115 -2.08883,-1.06871c0.61936,0.47363 1.32374,0.84403 2.08883,1.06871z" data-paper-data="{&quot;origPos&quot;:null}" id="ID0.17456053430214524" fill="#ffa100" stroke="none" stroke-width="1"/><g data-paper-data="{&quot;origPos&quot;:null}" id="ID0.8163827913813293" fill="#ffa100" stroke="none" stroke-width="1"><path d="M304.98339,161.46558c0.14148,0.53435 -0.09776,1.34499 -0.72016,2.4307c-0.62119,1.08631 -1.2782,1.86052 -1.97103,2.32322c-0.69284,0.4627 -1.76761,0.7657 -3.22312,0.90779c-1.17254,0.10687 -2.26493,-0.40987 -3.27655,-1.54902c-1.01284,-1.13914 -1.58909,-2.40337 -1.73118,-3.79208c-0.39166,-3.91656 -0.88897,-6.72981 -1.49254,-8.43913c-0.07165,-0.42688 -0.26657,-1.05838 -0.58657,-1.89574c-0.3194,-0.83614 -1.04745,-1.5223 -2.18417,-2.05665c-0.85314,-0.32 -1.72268,-0.65823 -2.61043,-1.01466c-0.14209,-0.03522 -0.3194,-0.03522 -0.53253,0c-0.49731,0.14209 -1.52837,0.42688 -3.09075,0.85436v1.01466v4.16613c0,0.07165 0.02672,0.40987 0.08015,1.01466c0.05344,0.606 0.08015,1.03349 0.08015,1.28184c0.07104,0.606 0.16091,2.20846 0.26718,4.80675c0.24835,0.10748 0.51553,0.10748 0.80092,0c0.96123,-0.39166 1.81559,-0.48031 2.56368,-0.26657c0.53435,0.17852 0.80092,0.606 0.80092,1.28184c0,0.99766 -0.52524,1.59395 -1.57573,1.78887c-1.05049,0.19613 -2.5904,0.47242 -4.61972,0.82825c-1.63828,0.32 -2.84907,0.48031 -3.63178,0.48031c-1.21079,0 -2.04815,-0.28479 -2.51024,-0.85436c-0.10687,-1.17558 0.49792,-1.88663 1.81559,-2.1368c1.06871,-0.10687 2.1368,-0.23135 3.2043,-0.37405c0.14209,-0.17731 0.21435,-0.37344 0.21435,-0.58718c-0.03643,-0.81914 -0.23196,-3.75686 -0.58779,-8.81318c-0.10687,-1.21019 -0.1427,-2.1368 -0.10687,-2.77742c-0.64122,-0.03522 -1.06871,-0.08865 -1.28184,-0.16031c-0.53435,-0.17792 -0.87318,-0.51614 -1.01466,-1.01466v-0.16091c0.07044,-0.03522 0.12387,-0.21374 0.16031,-0.53375c0.49792,-0.78331 1.13914,-1.08571 1.92306,-0.9084c0.07044,-0.21374 0.05344,-0.78271 -0.05404,-1.70871c-0.32,-3.38221 -0.51674,-6.08859 -0.58718,-8.11852c-0.1427,-0.14148 -0.4457,-0.17792 -0.9084,-0.10687c-0.71227,0.1427 -1.08631,0.21374 -1.12153,0.21374c-1.92306,0 -2.84907,-0.46209 -2.77742,-1.38871c0.07104,-0.85436 0.80092,-1.36989 2.18963,-1.54902c1.24601,-0.24835 3.86313,-0.64062 7.85195,-1.17497c-0.17852,0.03583 1.08571,0.08865 3.79208,0.16031c3.13264,0.24957 5.32288,0.76631 6.5695,1.54902c1.35288,0.89079 2.26068,2.06515 2.72338,3.52551c0.14148,0.46331 0.17792,1.15736 0.10687,2.08337c-0.03583,0.92601 -0.17852,1.58423 -0.42688,1.97589c-0.81975,1.49558 -2.47503,2.83086 -4.96766,4.00643c0,0.10687 0.01761,0.17852 0.05344,0.21374c0.89018,0.64122 1.49558,1.21079 1.81619,1.70871c0.92479,1.49558 1.54902,3.66821 1.86902,6.51607c0.4627,3.88195 0.83614,6.32054 1.12153,7.3176c0.03583,0.21374 0.28479,0.55196 0.74749,1.01466c0.4627,0.46392 0.83675,0.71288 1.12214,0.74749c1.10271,0.07165 1.78037,-0.42688 2.02993,-1.49558c-0.03643,-0.39166 0.12387,-0.9254 0.48031,-1.60245c0.49853,-0.4627 1.10332,-0.69466 1.81619,-0.69466c0.71348,0.00121 1.17618,0.32243 1.39053,0.96244zM294.30119,142.7183c0.32,-0.32 0.48031,-0.81853 0.48031,-1.49558c0,-1.81559 -0.64122,-3.11503 -1.92246,-3.89895c-1.28184,-0.78271 -4.05987,-1.13914 -8.33287,-1.0681c-0.32,0 -0.80092,0.14209 -1.44215,0.42688c0.10748,0.53435 0.10748,0.97944 0,1.33527c-0.03583,0.53435 -0.03583,1.03288 0,1.49558c0.01761,0.96123 0.05404,2.15502 0.10748,3.57895c0.17731,2.10098 0.26657,3.27655 0.26657,3.52491c0.60479,-0.03522 1.49558,-0.21374 2.67055,-0.53375c0.17731,-0.17792 0.42688,-0.37405 0.74749,-0.58779c0.24835,-0.07104 0.88958,-0.10687 1.92246,-0.10687c1.95889,0.00061 3.7933,-0.88897 5.50262,-2.67055z" id="ID0.6007779934443533"/><path d="M298.76972,173.82067c-2.0943,0 -5.17715,-0.66065 -7.97157,-3.80666c-0.04615,-0.05222 -0.09169,-0.10444 -0.13784,-0.15727c-0.85254,0.48638 -1.81255,0.83918 -2.85818,1.03349c-1.04988,0.19552 -2.59343,0.47302 -4.62337,0.82885c-2.07669,0.4038 -3.61903,0.59204 -4.84804,0.59204c-4.13395,0 -6.4681,-1.80951 -7.69893,-3.32756c-0.83432,-1.02863 -1.34378,-2.28314 -1.4634,-3.60202c-0.34186,-3.76719 1.59456,-7.01824 4.87901,-8.55329c-0.04797,-0.69769 -0.10262,-1.48829 -0.16516,-2.38212c-1.05353,-0.98795 -1.83016,-2.25278 -2.24307,-3.70647c-0.16881,-0.59386 -0.25442,-1.20837 -0.25442,-1.82591v-0.16091c0,-0.75659 0.12812,-1.49437 0.36737,-2.1866c0.17427,-0.68191 0.45541,-1.33406 0.83553,-1.93156c0.19735,-0.31029 0.40866,-0.60418 0.63272,-0.88229c-0.00486,-0.05344 -0.00972,-0.10748 -0.01336,-0.16091c-1.08328,-0.40623 -2.19995,-1.05595 -3.163,-2.09612c-1.46036,-1.57877 -2.17263,-3.64149 -2.00443,-5.80987c0.40137,-4.82739 4.35255,-7.09718 7.72929,-7.6206c1.45004,-0.27811 4.09994,-0.67401 8.08452,-1.20776c0.62483,-0.08319 1.24176,-0.07833 1.83744,0.00729c0.37708,0.017 1.21322,0.04858 3.01727,0.09594c0.11841,0.00304 0.23742,0.00972 0.35522,0.01882c4.31915,0.34369 7.36678,1.15372 9.58981,2.54971c0.04129,0.0255 0.08197,0.05161 0.12266,0.07833c2.62076,1.72632 4.49403,4.17585 5.417,7.08443c0.00668,0.02186 0.01336,0.04311 0.02004,0.06497c0.38862,1.2697 0.51249,2.67844 0.38862,4.42602c-0.09108,1.97285 -0.52282,3.59292 -1.31767,4.93973c-0.46088,0.8161 -1.01588,1.58423 -1.66803,2.30804c0.55621,1.58423 0.96123,3.38221 1.22476,5.42186c0.24896,-0.01882 0.50035,-0.02854 0.75417,-0.02854c3.57045,0 6.60229,2.16777 7.72383,5.52326c0.04433,0.1342 0.08501,0.26839 0.12084,0.40502c0.9169,3.45447 -0.81185,6.47174 -1.3796,7.46333c-1.15068,2.01111 -2.47867,3.50365 -4.05744,4.55779c-1.63646,1.09299 -3.69189,1.74758 -6.28229,2.00139c-0.34551,0.03279 -0.64972,0.04615 -0.9503,0.04615z" id="ID0.0849599870853126"/></g><path d="M279.13347,160.34769c-0.42505,4.5845 -1.80344,8.06387 -4.20196,10.59597c-1.3966,1.47554 -3.46722,2.6414 -6.91623,3.88013c-0.06679,0.02429 -0.13966,0.04858 -0.21253,0.07287c-1.65164,0.52828 -3.45508,0.80153 -5.35567,0.80153c-2.89644,0 -5.58642,-0.57079 -7.99708,-1.69414c-3.56438,-1.66378 -5.33746,-3.98943 -6.21792,-5.95075c-0.12752,-0.21253 -0.2611,-0.43113 -0.38862,-0.66794c-0.36433,-0.66187 -0.61936,-1.37839 -0.74081,-2.12527c-0.17609,-1.04442 -0.45541,-2.61711 -0.83796,-4.70595c-0.07287,-0.40076 -0.1093,-0.80153 -0.1093,-1.20837v-5.28281c0,-0.6558 0.05465,-1.6152 0.44934,-4.2141c0.38255,-2.54425 0.5465,-3.33363 0.85011,-4.11087c0.79546,-2.11919 3.17576,-8.34926 8.94434,-9.58192c1.89452,-0.40076 4.02586,-0.45541 6.04183,-0.23682c1.42696,-2.28922 3.97729,-3.65546 6.87372,-3.65546c5.02777,0 7.80884,3.31542 8.33105,6.5944c0.05465,0.34611 0.07894,0.6983 0.07894,1.05049v8.43427c0,0.00607 0,0.01214 0,0.01214c0,0.00607 0,0.00607 0,0.01214c0,0 0,0 0,0.00607c0,0.55257 -0.07287,1.08085 -0.19431,1.59699c1.17193,1.32981 1.82166,2.9693 1.85202,4.72416c0.03643,1.76094 -0.04858,3.6676 -0.24896,5.65321z" data-paper-data="{&quot;origPos&quot;:null}" id="ID0.6895651021040976" fill="#ffa100" stroke="none" stroke-width="1"/><path d="M250.87956,158.63655c-1.96132,5.43461 -7.2927,8.73788 -15.84235,9.81873c-0.38862,0.04858 -0.77117,0.07894 -1.15372,0.09108c-0.49792,0.72866 -1.14764,1.36017 -1.91274,1.85202c-2.00382,1.28123 -3.88013,1.90667 -5.73215,1.90667c-3.80726,0 -7.90599,-2.84179 -7.90599,-9.084c0,-0.42505 0.01822,-0.97762 0.06072,-1.74272c0.01822,-0.3279 0.03643,-0.58293 0.04251,-0.77117c-0.10323,-0.47363 -0.15788,-0.95333 -0.15788,-1.43911v-2.93894c0,-0.4797 0.04858,-0.95941 0.14573,-1.43911c0.00607,-0.40684 0.02429,-0.86225 0.05465,-1.36017c-0.14573,-0.53435 -0.25503,-1.15372 -0.25503,-1.84595c0,-0.31575 0.02429,-0.63151 0.06679,-0.94119c0.23074,-1.62735 0.95333,-3.26077 2.17384,-4.56629c-0.41898,-1.17193 -0.63758,-2.41066 -0.63758,-3.67975v-3.09682c0,-1.25694 0.24896,-2.82357 1.46947,-6.72192c0.51006,-1.67592 0.67401,-2.19813 0.89868,-2.68391c1.19622,-2.68391 2.99966,-4.02586 4.31126,-4.68773c2.14348,-1.06871 4.44484,-1.6152 6.83729,-1.6152c1.10514,0 2.1617,0.11537 3.16968,0.33397c0.44934,-0.30361 0.92905,-0.55864 1.43911,-0.77117c0.64972,-0.27932 1.34195,-0.47363 2.10705,-0.59507c1.91274,-0.3279 3.93478,0.07894 5.69572,1.14764c1.85202,1.12943 3.97729,3.47329 3.71618,8.29461c-0.04251,0.85011 -0.11537,1.98561 -0.22467,3.46722c-0.00607,0.03643 -0.00607,0.07287 -0.01214,0.1093c-0.09716,1.07478 -0.23682,2.67784 -0.42505,4.79703c0.04858,0.81975 0.03036,1.73665 -0.04251,2.8175c-0.03036,0.41291 -0.09716,0.82582 -0.20645,1.22658c-0.02429,0.09108 -0.04858,0.17609 -0.07287,0.25503c0.81975,1.05049 1.37839,2.10098 1.76094,3.01181c0.35826,0.72259 0.66187,1.55448 0.92905,2.56854c0.10323,0.38255 0.17002,0.77117 0.20038,1.16586c0.27325,3.4065 0.13359,5.41639 -0.49792,7.11661z" data-paper-data="{&quot;origPos&quot;:null}" id="ID0.1519448710605502" fill="#ffa100" stroke="none" stroke-width="1"/><path d="M387.82569,157.91881c-0.42505,4.5845 -1.80344,8.06387 -4.20196,10.59597c-1.3966,1.47554 -3.46722,2.6414 -6.91623,3.88013c-0.06679,0.02429 -0.13966,0.04858 -0.21253,0.07287c-1.65164,0.52828 -3.45508,0.80153 -5.35567,0.80153c-2.89644,0 -5.58642,-0.57079 -7.99708,-1.69414c-3.56438,-1.66378 -5.33746,-3.98943 -6.21792,-5.95075c-0.12752,-0.21253 -0.2611,-0.43113 -0.38862,-0.66794c-0.36433,-0.66187 -0.61936,-1.37839 -0.74081,-2.12527c-0.17609,-1.04442 -0.45541,-2.61711 -0.83796,-4.70595c-0.07287,-0.40076 -0.1093,-0.80153 -0.1093,-1.20837v-5.28281c0,-0.6558 0.05465,-1.6152 0.44934,-4.2141c0.38255,-2.54425 0.5465,-3.33363 0.85011,-4.11087c0.79546,-2.11919 3.17576,-8.34926 8.94434,-9.58192c1.89452,-0.40076 4.02586,-0.45541 6.04183,-0.23682c1.42696,-2.28922 3.97729,-3.65546 6.87372,-3.65546c5.02777,0 7.80884,3.31542 8.33105,6.5944c0.05465,0.34611 0.07894,0.6983 0.07894,1.05049v8.43427c0,0.00607 0,0.01214 0,0.01214c0,0.00607 0,0.00607 0,0.01214c0,0 0,0 0,0.00607c0,0.55257 -0.07287,1.08085 -0.19431,1.59699c1.17193,1.32981 1.82166,2.9693 1.85202,4.72416c0.03643,1.76094 -0.04858,3.6676 -0.24896,5.65321z" data-paper-data="{&quot;origPos&quot;:null}" id="ID0.6895651021040976" fill="#ffa100" stroke="none" stroke-width="1"/><path d="M361.04247,133.31126c-0.24896,0.99766 -0.4627,2.34994 -0.64062,4.05926c-0.07226,0.85496 -0.03704,1.54902 0.10687,2.08337c0.24775,0.89079 0.23135,1.47858 -0.05344,1.76276c-0.39226,0.35583 -0.92601,0.53375 -1.60245,0.53375c-0.78392,0 -1.30127,-0.23256 -1.54902,-0.69891c-0.03704,-1.43425 -0.01882,-2.77985 0.05344,-4.03558c0.06983,-1.54234 0.10687,-2.34933 0.10687,-2.42098c-0.03704,0 -0.08987,-0.03583 -0.16031,-0.10808c-3.31238,0.14391 -6.42802,0.35765 -9.34753,0.64305c-0.07165,0.35765 -0.07165,0.92783 0,1.71236c0.14148,1.10635 0.21374,1.74879 0.21374,1.9261c-0.14209,1.10635 -0.21374,2.74706 -0.21374,4.92394c0.14148,0.92783 0.21374,4.90633 0.21374,11.93489v3.90745c0,0.60661 0.08805,1.0347 0.26475,1.28427h3.27959c0.59933,-0.07104 1.08389,0.07165 1.4549,0.42748c0.3698,0.35644 0.555,0.78331 0.555,1.28123c0,0.78271 -0.37344,1.33527 -1.12153,1.65649c-0.46331,0.17731 -1.28184,0.21374 -2.45681,0.10687c-0.56957,-0.03643 -1.40693,-0.03643 -2.51085,0c-0.99705,0.12387 -2.5989,0.24835 -4.80675,0.37344c-1.92306,0.07104 -3.09803,-0.19613 -3.52551,-0.80092c-0.28539,-0.42688 -0.28539,-0.87257 0,-1.33527c0.49792,-0.78271 1.79798,-1.17497 3.89956,-1.17497c0.74749,0 1.20958,-0.06194 1.3881,-0.18642c0.17792,-0.12448 0.26718,-0.36494 0.26718,-0.72077c0,-0.3194 0,-0.62119 0,-0.90597c0,-0.53253 0,-1.31463 0,-2.34508c0.10687,-1.81133 0.10687,-4.51285 0,-8.10212c-0.1427,-5.15225 -0.07165,-9.68211 0.21374,-13.59139c-0.03583,-0.03522 -0.08926,-0.08865 -0.16152,-0.16031c-1.28913,0.07165 -3.36582,0.03583 -6.23007,-0.10748c-0.32243,0 -1.41543,0.07226 -3.27655,0.21435c0.4627,3.24073 0.74749,5.67993 0.85436,7.3176c0,0.21374 -0.03583,0.69466 -0.10687,1.44215c-0.03583,0.53375 -0.48092,0.80092 -1.33527,0.80092c-0.46331,0 -0.72988,-0.15909 -0.80092,-0.47667c-0.03583,-0.06983 -0.24957,-1.02438 -0.64122,-2.86061c-0.21374,-1.20047 -0.51674,-2.89583 -0.90779,-5.08546c0,-0.13966 -0.12509,-0.58111 -0.37344,-1.32374c-0.21253,-0.60054 -0.31879,-1.0596 -0.31879,-1.37717c0,-0.24653 0.1682,-0.55682 0.50764,-0.92662c0.33822,-0.3704 0.84586,-0.60965 1.5223,-0.71591c0.10687,0 0.27507,0 0.50764,0c0.23074,0 0.41777,0 0.56046,0c4.23778,0 6.08919,0 5.55484,0c2.88429,0.10748 5.44797,0.10748 7.69104,0c3.2043,-0.14148 6.37276,-0.42688 9.50723,-0.85436c0.21374,-0.10687 0.53375,-0.21374 0.96062,-0.32c0.78392,-0.07104 1.42454,0.10687 1.92367,0.53435c0.49792,0.42627 0.67583,0.99645 0.53375,1.70871z" data-paper-data="{&quot;origPos&quot;:null}" id="ID0.05948115512728691" fill="#ffffff" stroke="none" stroke-width="1"/><path d="M333.92649,158.6499c-0.25017,0.28539 -0.76631,0.56957 -1.54902,0.85436c-2.92133,1.13975 -5.43036,2.54607 -7.53073,4.21957c-0.39226,0.28479 -1.08753,0.44448 -2.08398,0.48031c-0.28539,0 -0.57929,-0.12509 -0.88107,-0.37344c-0.303,-0.24896 -0.4542,-0.53435 -0.4542,-0.85436c0,-0.42748 0.48092,-0.97884 1.44215,-1.65649c0.67583,-0.42688 1.35349,-0.87257 2.03054,-1.33527c0.03461,-0.17731 -0.55257,-2.27829 -1.76458,-6.30233c-1.9601,-0.03522 -5.04295,0.60479 -9.24734,1.92185c-0.25017,0.07165 -0.39287,0.21374 -0.42809,0.42748c-0.03583,0.21374 -0.08926,0.56896 -0.16031,1.06749c-0.06862,0.10687 -0.13662,0.26657 -0.20463,0.48031c0,0.1427 0.20463,0.2945 0.61451,0.45481c0.40866,0.16091 0.66794,0.31272 0.7742,0.4542c0.10687,0.1427 0.16031,0.32 0.16031,0.53435c0,0.42688 -0.18702,0.82825 -0.56107,1.20229c-0.37344,0.37344 -0.82764,0.56046 -1.36139,0.56046c0.03522,0 -0.606,-0.08865 -1.92306,-0.26657c-0.24957,-0.03522 -1.86963,-0.17792 -4.86079,-0.42688c-1.42454,-0.14209 -2.36815,-0.35583 -2.83025,-0.64122c-0.32061,-0.21374 -0.48092,-0.49853 -0.48092,-0.85436c0,-0.85496 0.42748,-1.35349 1.28184,-1.49558c0.49792,-0.07104 1.13914,-0.03583 1.92246,0.10687c0.17792,0.07165 1.58363,0.19552 4.21957,0.37344c0.21374,-1.49558 0.56957,-3.57895 1.0681,-6.24889c1.10332,-4.37987 2.26128,-9.93471 3.47208,-16.66452c-0.35644,-0.07044 -0.72988,-0.10687 -1.12153,-0.10687c-0.67705,0 -1.6826,0.19613 -3.01849,0.58779c-1.33467,0.39226 -2.32322,0.58779 -2.96444,0.58779c-0.24896,0 -0.6054,-0.19492 -1.0681,-0.58779c-0.1427,-0.42748 -0.04493,-0.80942 0.29329,-1.14825c0.33822,-0.33822 0.71227,-0.54285 1.12214,-0.61451c0.40927,-0.07104 1.05899,-0.19552 1.94978,-0.37405c1.5308,-0.28479 3.38221,-0.49792 5.55423,-0.64122c1.03227,-0.07044 1.56663,-0.10687 1.60245,-0.10687c0.56957,0.07165 0.99705,0.34733 1.28184,0.82764c0.28479,0.48092 0.56957,1.25512 0.85436,2.32322c0.35583,1.31827 0.59568,2.11919 0.72138,2.40398c0.12448,0.28539 0.32911,0.74749 0.61451,1.38871c0.14148,0.42688 0.40866,1.0681 0.80092,1.92246c0.81914,1.95889 2.10037,5.02109 3.84613,9.18662c0.64062,1.70932 1.65589,4.30943 3.0446,7.79851c0.60479,-0.07104 1.38871,-0.37405 2.34933,-0.90779c0.96184,-0.53435 1.6735,-0.80092 2.13741,-0.80092c0.42688,0 0.83614,0.16031 1.2284,0.48031c0.10687,0.10687 0.19431,0.37405 0.26657,0.80092c0.03583,0.46392 -0.01761,0.78453 -0.15909,0.96244zM322.06872,150.90725c-0.60783,-1.17497 -1.37474,-2.95655 -2.30257,-5.34353c-0.35704,-0.81914 -1.32009,-2.95594 -2.89097,-6.41223l-2.6414,13.46569c3.19822,-0.60479 5.70239,-1.0681 7.51494,-1.38932c0.21313,-0.14148 0.32,-0.24896 0.32,-0.32061z" data-paper-data="{&quot;origPos&quot;:null}" id="ID0.027485548984259367" fill="#ffffff" stroke="none" stroke-width="1"/><path d="M304.98339,161.46558c0.14148,0.53435 -0.09776,1.34499 -0.72016,2.4307c-0.62119,1.08631 -1.2782,1.86052 -1.97103,2.32322c-0.69284,0.4627 -1.76761,0.7657 -3.22312,0.90779c-1.17254,0.10687 -2.26493,-0.40987 -3.27655,-1.54902c-1.01284,-1.13914 -1.58909,-2.40337 -1.73118,-3.79208c-0.39166,-3.91656 -0.88897,-6.72981 -1.49254,-8.43913c-0.07165,-0.42688 -0.26657,-1.05838 -0.58657,-1.89574c-0.3194,-0.83614 -1.04745,-1.5223 -2.18417,-2.05665c-0.85314,-0.32 -1.72268,-0.65823 -2.61043,-1.01466c-0.14209,-0.03522 -0.3194,-0.03522 -0.53253,0c-0.49731,0.14209 -1.52837,0.42688 -3.09075,0.85436v1.01466v4.16613c0,0.07165 0.02672,0.40987 0.08015,1.01466c0.05344,0.606 0.08015,1.03349 0.08015,1.28184c0.07104,0.606 0.16091,2.20846 0.26718,4.80675c0.24835,0.10748 0.51553,0.10748 0.80092,0c0.96123,-0.39166 1.81559,-0.48031 2.56368,-0.26657c0.53435,0.17852 0.80092,0.606 0.80092,1.28184c0,0.99766 -0.52524,1.59395 -1.57573,1.78887c-1.05049,0.19613 -2.5904,0.47242 -4.61972,0.82825c-1.63828,0.32 -2.84907,0.48031 -3.63178,0.48031c-1.21079,0 -2.04815,-0.28479 -2.51024,-0.85436c-0.10687,-1.17558 0.49792,-1.88663 1.81559,-2.1368c1.06871,-0.10687 2.1368,-0.23135 3.2043,-0.37405c0.14209,-0.17731 0.21435,-0.37344 0.21435,-0.58718c-0.03643,-0.81914 -0.23196,-3.75686 -0.58779,-8.81318c-0.10687,-1.21019 -0.1427,-2.1368 -0.10687,-2.77742c-0.64122,-0.03522 -1.06871,-0.08865 -1.28184,-0.16031c-0.53435,-0.17792 -0.87318,-0.51614 -1.01466,-1.01466v-0.16091c0.07044,-0.03522 0.12387,-0.21374 0.16031,-0.53375c0.49792,-0.78331 1.13914,-1.08571 1.92306,-0.9084c0.07044,-0.21374 0.05344,-0.78271 -0.05404,-1.70871c-0.32,-3.38221 -0.51674,-6.08859 -0.58718,-8.11852c-0.1427,-0.14148 -0.4457,-0.17792 -0.9084,-0.10687c-0.71227,0.1427 -1.08631,0.21374 -1.12153,0.21374c-1.92306,0 -2.84907,-0.46209 -2.77742,-1.38871c0.07104,-0.85436 0.80092,-1.36989 2.18963,-1.54902c1.24601,-0.24835 3.86313,-0.64062 7.85195,-1.17497c-0.17852,0.03583 1.08571,0.08865 3.79208,0.16031c3.13264,0.24957 5.32288,0.76631 6.5695,1.54902c1.35288,0.89079 2.26068,2.06515 2.72338,3.52551c0.14148,0.46331 0.17792,1.15736 0.10687,2.08337c-0.03583,0.92601 -0.17852,1.58423 -0.42688,1.97589c-0.81975,1.49558 -2.47503,2.83086 -4.96766,4.00643c0,0.10687 0.01761,0.17852 0.05344,0.21374c0.89018,0.64122 1.49558,1.21079 1.81619,1.70871c0.92479,1.49558 1.54902,3.66821 1.86902,6.51607c0.4627,3.88195 0.83614,6.32054 1.12153,7.3176c0.03583,0.21374 0.28479,0.55196 0.74749,1.01466c0.4627,0.46392 0.83675,0.71288 1.12214,0.74749c1.10271,0.07165 1.78037,-0.42688 2.02993,-1.49558c-0.03643,-0.39166 0.12387,-0.9254 0.48031,-1.60245c0.49853,-0.4627 1.10332,-0.69466 1.81619,-0.69466c0.71348,0.00121 1.17618,0.32243 1.39053,0.96244zM294.30119,142.7183c0.32,-0.32 0.48031,-0.81853 0.48031,-1.49558c0,-1.81559 -0.64122,-3.11503 -1.92246,-3.89895c-1.28184,-0.78271 -4.05987,-1.13914 -8.33287,-1.0681c-0.32,0 -0.80092,0.14209 -1.44215,0.42688c0.10748,0.53435 0.10748,0.97944 0,1.33527c-0.03583,0.53435 -0.03583,1.03288 0,1.49558c0.01761,0.96123 0.05404,2.15502 0.10748,3.57895c0.17731,2.10098 0.26657,3.27655 0.26657,3.52491c0.60479,-0.03522 1.49558,-0.21374 2.67055,-0.53375c0.17731,-0.17792 0.42688,-0.37405 0.74749,-0.58779c0.24835,-0.07104 0.88958,-0.10687 1.92246,-0.10687c1.95889,0.00061 3.7933,-0.88897 5.50262,-2.67055z" data-paper-data="{&quot;origPos&quot;:null}" id="ID0.2135459086857736" fill="#ffffff" stroke="none" stroke-width="1"/><path d="M272.70241,154.80864c0.03461,1.49558 -0.03583,3.11625 -0.21374,4.86018c-0.286,3.06281 -1.08631,5.28766 -2.40398,6.67637c-0.606,0.64122 -2.04754,1.3711 -4.32583,2.18963c-0.99766,0.32061 -2.10159,0.48092 -3.31177,0.48092c-1.92246,0 -3.64999,-0.35583 -5.18079,-1.06871c-1.6741,-0.78271 -2.70638,-1.79737 -3.09803,-3.0446c-0.14209,-0.17792 -0.303,-0.42688 -0.48031,-0.74749c-0.17913,-1.0681 -0.46331,-2.66994 -0.85496,-4.80675v-5.28766c0,-0.49853 0.12448,-1.56663 0.37405,-3.2049c0.24835,-1.63706 0.40927,-2.54486 0.48092,-2.72338c1.24601,-3.31177 2.61711,-5.12736 4.11209,-5.44858c0.67583,-0.14148 1.42393,-0.21374 2.24307,-0.21374c2.63472,0 5.02109,0.64122 7.15729,1.92306c0.14148,0.07165 0.32,0.10687 0.53375,0.10687c0.03583,-0.10687 0.07104,-0.55135 0.10748,-1.33527c0.03522,0 0.03522,-0.6224 0,-1.86902c-0.03643,-0.85496 0.04797,-1.45975 0.2526,-1.81619c0.20342,-0.35522 0.61208,-0.53435 1.22294,-0.53435c1.05049,0 1.62735,0.32061 1.72936,0.96184c0,0.03583 0,1.35349 0,3.95239c0,1.95889 0,3.18729 0,3.68521c0,0.606 0,0.87318 0,0.80092c-0.1433,0.53435 -0.39226,0.85436 -0.74809,0.96123c-0.96062,0.32061 -1.62006,0.33944 -1.97589,0.05344c-0.17852,0 -0.37344,-0.05344 -0.58779,-0.16031c-0.17852,-0.49792 -0.56957,-1.15615 -1.17497,-1.97589c-0.81975,-0.67583 -1.88784,-1.26362 -3.2043,-1.76276c-1.31827,-0.49792 -2.43981,-0.74749 -3.36521,-0.74749c-1.17558,0 -2.11859,0.90779 -2.83086,2.72398c-0.99766,2.49263 -1.44215,5.71454 -1.33527,9.66754c0.07104,1.74515 0.12448,2.84907 0.16091,3.31117c0.17731,1.46036 0.56957,2.70638 1.17497,3.73865c0.42748,0.71288 1.08571,1.30066 1.9765,1.76276c0.88958,0.46331 1.76215,0.71227 2.61711,0.74749c4.23778,0.17852 6.71159,-1.69111 7.42508,-5.60828c0.39166,-2.10037 0.42688,-3.86313 0.10687,-5.28766c-0.07226,-0.28479 -0.03704,-0.66794 0.10687,-1.14886c0.14087,-0.48031 0.7651,-0.7742 1.86902,-0.88107c0.24896,0 0.55135,0.11598 0.9084,0.34733c0.3534,0.23317 0.53253,0.47302 0.53253,0.72198z" data-paper-data="{&quot;origPos&quot;:null}" id="ID0.5211598752066493" fill="#ffffff" stroke="none" stroke-width="1"/><path d="M244.71993,152.05672c0.17792,2.20846 0.14148,3.63178 -0.10687,4.273c-1.03349,2.92012 -4.50557,4.75331 -10.41502,5.50141c-1.99471,0.24957 -3.98822,-0.69405 -5.98293,-2.83086c0,0.32061 0.07104,1.28184 0.21435,2.8849c0.10687,1.17497 0.08865,2.1362 -0.05344,2.88368c-0.89079,0.56957 -1.60245,0.85496 -2.1368,0.85496c-0.81975,0 -1.2284,-0.80092 -1.2284,-2.40398c0,-0.28479 0.01761,-0.73838 0.05344,-1.36139c0.03522,-0.6224 0.05344,-1.05899 0.05344,-1.30856c0,-0.6054 -0.05344,-1.03227 -0.16031,-1.28184v-2.93773c0,-0.07104 0.01761,-0.1512 0.05344,-0.24046c0.03522,-0.08865 0.07104,-0.16881 0.10687,-0.24046c-0.03583,-0.49792 -0.01822,-1.26362 0.05344,-2.2965c0.07104,-0.64122 0.07104,-1.04988 0,-1.2284c-0.17852,-0.35522 -0.26657,-0.56896 -0.26657,-0.64062c0.14148,-0.99705 0.87257,-1.49558 2.18963,-1.49558c0.85436,0 1.37049,0.303 1.54902,0.90779c0,0.56957 0.07104,1.40693 0.21374,2.51024c0.21435,1.28184 0.89018,2.56429 2.02993,3.84552c1.24601,1.46036 2.43859,2.1368 3.57895,2.02993c1.28184,-0.14148 2.56368,-0.44448 3.84552,-0.90779c1.78037,-0.64122 2.84846,-1.38871 3.2049,-2.24307c0.24835,-0.64122 0.37344,-1.31706 0.37344,-2.02993c0,-2.17142 -0.80092,-3.79208 -2.40337,-4.86018c-0.71288,-0.4627 -2.02993,-0.83675 -3.953,-1.12214c-1.10392,-0.14148 -1.78097,-0.21374 -2.02933,-0.21374c-1.70932,0.03583 -3.30327,-0.51614 -4.78064,-1.65589c-1.47797,-1.13914 -2.21635,-2.45742 -2.21635,-3.953v-3.09742c0,-0.67583 0.39166,-2.26068 1.17558,-4.75331c0.35522,-1.17558 0.55135,-1.79798 0.58779,-1.86963c0.32,-0.74749 0.72927,-1.24601 1.2278,-1.49558c1.21019,-0.60479 2.49203,-0.90779 3.84552,-0.90779c2.63472,0 4.5754,1.0681 5.82202,3.2043c0.10687,0.10687 0.28479,0.26718 0.53435,0.48092c0.03522,-0.49792 0.10687,-1.26362 0.21374,-2.2965c-0.03583,-0.4627 -0.07165,-0.90779 -0.10687,-1.33527c0,-0.49792 0.24835,-0.83614 0.74749,-1.01466c0.14209,-0.07104 0.33822,-0.12448 0.58779,-0.16031c0.35583,-0.07104 0.73899,0.01822 1.14886,0.26657c0.40866,0.24957 0.57807,0.99766 0.50703,2.24307c-0.03583,0.78331 -0.10687,1.88724 -0.21374,3.31117c-0.10687,1.17558 -0.26657,2.97355 -0.48092,5.39514c0.07104,0.56957 0.07104,1.35349 0,2.34994c-0.17852,0.67644 -0.71288,1.01466 -1.60245,1.01466c-0.46331,0 -0.90779,-0.12448 -1.33527,-0.37344c-0.21374,-0.67583 -0.32,-0.96184 -0.32,-0.85496c0.07044,-0.96123 -0.12509,-2.24307 -0.58779,-3.84552c-0.39226,-0.81853 -0.93451,-1.98439 -1.62917,-3.49819c-0.69466,-1.51319 -1.61156,-2.32383 -2.7507,-2.4307c-1.42454,-0.10687 -2.34994,0.37405 -2.77742,1.44215c-0.14209,0.46331 -0.33883,1.14036 -0.58718,2.02993c-0.42748,1.31767 -0.69466,2.5819 -0.80153,3.79208c-0.03583,0.39226 -0.07165,0.55257 -0.10687,0.48092c0.10687,0.71288 0.23135,1.42454 0.37405,2.1368c0.17792,0.89018 0.61451,1.56723 1.30856,2.02933c0.69466,0.46331 2.02022,0.74749 3.97911,0.85436c4.80675,0.286 7.77969,1.9595 8.91944,5.02109c0.17731,0.28539 0.35522,0.7657 0.53375,1.44154z" data-paper-data="{&quot;origPos&quot;:null}" id="ID0.570444684009999" fill="#ffffff" stroke="none" stroke-width="1"/><path d="M380.78741,152.37976c0.03461,1.49558 -0.03583,3.11625 -0.21374,4.86018c-0.286,3.06281 -1.08631,5.28766 -2.40398,6.67637c-0.606,0.64122 -2.04754,1.3711 -4.32583,2.18963c-0.99766,0.32061 -2.10159,0.48092 -3.31177,0.48092c-1.92246,0 -3.64999,-0.35583 -5.18079,-1.06871c-1.6741,-0.78271 -2.70638,-1.79737 -3.09803,-3.0446c-0.14209,-0.17792 -0.303,-0.42688 -0.48031,-0.74749c-0.17913,-1.0681 -0.46331,-2.66994 -0.85496,-4.80675v-5.28766c0,-0.49853 0.12448,-1.56663 0.37405,-3.2049c0.24835,-1.63706 0.40927,-2.54486 0.48092,-2.72338c1.24601,-3.31177 2.61711,-5.12736 4.11209,-5.44858c0.67583,-0.14148 1.42393,-0.21374 2.24307,-0.21374c2.63472,0 5.02109,0.64122 7.15729,1.92306c0.14148,0.07165 0.32,0.10687 0.53375,0.10687c0.03583,-0.10687 0.07104,-0.55135 0.10748,-1.33527c0.03522,0 0.03522,-0.6224 0,-1.86902c-0.03643,-0.85496 0.04797,-1.45975 0.2526,-1.81619c0.20342,-0.35522 0.61208,-0.53435 1.22294,-0.53435c1.05049,0 1.62735,0.32061 1.72936,0.96184c0,0.03583 0,1.35349 0,3.95239c0,1.95889 0,3.18729 0,3.68521c0,0.606 0,0.87318 0,0.80092c-0.1433,0.53435 -0.39226,0.85436 -0.74809,0.96123c-0.96062,0.32061 -1.62006,0.33944 -1.97589,0.05344c-0.17852,0 -0.37344,-0.05344 -0.58779,-0.16031c-0.17852,-0.49792 -0.56957,-1.15615 -1.17497,-1.97589c-0.81975,-0.67583 -1.88784,-1.26362 -3.2043,-1.76276c-1.31827,-0.49792 -2.43981,-0.74749 -3.36521,-0.74749c-1.17558,0 -2.11859,0.90779 -2.83086,2.72398c-0.99766,2.49263 -1.44215,5.71454 -1.33527,9.66754c0.07104,1.74515 0.12448,2.84907 0.16091,3.31117c0.17731,1.46036 0.56957,2.70638 1.17497,3.73865c0.42748,0.71288 1.08571,1.30066 1.9765,1.76276c0.88958,0.46331 1.76215,0.71227 2.61711,0.74749c4.23778,0.17852 6.71159,-1.69111 7.42508,-5.60828c0.39166,-2.10037 0.42688,-3.86313 0.10687,-5.28766c-0.07226,-0.28479 -0.03704,-0.66794 0.10687,-1.14886c0.14087,-0.48031 0.7651,-0.7742 1.86902,-0.88107c0.24896,0 0.55135,0.11598 0.9084,0.34733c0.3534,0.23317 0.53253,0.47302 0.53253,0.72198z" data-paper-data="{&quot;origPos&quot;:null}" id="ID0.5211598752066493" fill="#ffffff" stroke="none" stroke-width="1"/><path d="M414.42492,168.16624c0.03522,0.35522 -0.16091,0.7651 -0.58779,1.2278c-0.42748,0.4627 -1.17558,0.69466 -2.24307,0.69466c-0.24957,0 -0.65944,0 -1.2284,0c-0.56957,0.03522 -1.01466,0.05344 -1.33527,0.05344c-0.67644,0 -1.3711,0.05344 -2.08276,0.16091c-0.39226,0.07044 -1.2284,0.35522 -2.51085,0.85436c-1.13975,0.46209 -1.99411,0.69466 -2.56368,0.69466c-0.46331,0 -0.89079,-0.16941 -1.28184,-0.50764c-0.39226,-0.33883 -0.58718,-0.73959 -0.58718,-1.20169c0,-0.74749 0.87197,-1.33467 2.61711,-1.76215c2.52785,-0.64122 3.8273,-0.97944 3.89895,-1.01466c-0.07165,-2.27829 -0.16031,-4.8954 -0.26657,-7.85195c-0.10687,-2.77742 -0.16091,-4.09448 -0.16091,-3.95239v-2.99116c0,-0.03583 0,-0.3024 0,-0.80153c0.03583,-0.39166 0.03583,-0.67523 0,-0.85436c-0.03583,-0.32 -0.16031,-0.51553 -0.37344,-0.58718c-0.03583,-0.03583 -0.56957,-0.05404 -1.60245,-0.05404c-1.78097,0.03643 -3.84552,0.286 -6.19546,0.74749c-0.89079,0.21435 -2.22607,0.51735 -4.00643,0.9084v7.6376c0.03522,0.1427 0.05344,0.83736 0.05344,2.08337c0,0.99766 0.10748,1.60245 0.32061,1.81559c0.17792,0.07165 1.12153,0.1427 2.83086,0.21435c1.17497,0.03583 1.90424,0.46331 2.18963,1.28123c0.07044,0.21435 -0.00972,0.53435 -0.24046,0.96184c-0.23196,0.42688 -0.47181,0.69466 -0.72138,0.80092c-0.56957,0.21374 -0.96123,0.32 -1.17497,0.32c-0.78392,-0.03583 -2.72398,-0.19613 -5.82202,-0.48031h-3.47208c-0.56957,-0.03643 -1.12153,-0.20585 -1.65589,-0.50764c-0.53435,-0.3024 -0.80092,-0.64912 -0.80092,-1.04199c0,-0.56896 0.33822,-1.03167 1.01466,-1.3881c0.53435,-0.24896 1.12214,-0.37405 1.76276,-0.37405c0.24835,0 0.69466,0.00972 1.33467,0.02672c0.64122,0.01822 1.10332,0.00972 1.38871,-0.02672c-0.07165,-1.38264 -0.07165,-3.49333 0,-6.33208c0,0.03643 0,-1.43607 0,-4.41509c0,-0.10626 0.04433,-0.3279 0.1342,-0.66551c0.08865,-0.33701 0.13359,-0.59447 0.13359,-0.77117c-0.1427,-0.14209 -0.286,-0.35462 -0.42748,-0.63879c-0.07165,-0.28357 -0.07165,-0.53132 0,-0.74567c0.24896,-0.56775 0.33822,-1.45368 0.26657,-2.66023c0,-0.21253 0.02732,-0.57564 0.08076,-1.08996c0.05344,-0.51431 0.08015,-0.89626 0.08015,-1.14461c0,-0.46088 -0.08926,-1.68443 -0.26718,-3.67125v-4.4163c0,-0.21192 -0.06983,-0.54893 -0.20949,-1.01041c-0.97884,0.10687 -1.69596,0.16031 -2.14956,0.16031c-2.02811,0 -3.14661,-0.72927 -3.35549,-2.18963c0.53375,-1.10271 1.51258,-1.65589 2.93773,-1.65589c-0.03643,0 0.80092,0.07165 2.51024,0.21374c1.60245,0.1427 2.7592,0.17852 3.47208,0.10687c1.9935,-0.10687 2.88429,-0.16031 2.66994,-0.16031c1.95828,0 2.83086,0.58779 2.61772,1.76276c-0.17852,0.85436 -0.99766,1.30006 -2.45742,1.33467c-1.10392,0.03643 -2.18902,0.07165 -3.25773,0.10687c0.18702,1.24723 0.3115,2.63594 0.37405,4.16613c0,0.96123 0,2.33294 0,4.11269c0,1.92246 0,3.31117 0,4.16552c0.03522,0.03643 0.08865,0.07165 0.16031,0.10687c0.56957,0.03643 1.13914,0.05344 1.70871,0.05344c1.31706,0 3.00877,-0.10687 5.07392,-0.32c2.77742,-0.32 4.46731,-0.49792 5.07332,-0.53435c0.17792,-1.13914 0.26718,-2.49203 0.26718,-4.05926c0,-2.95534 -0.24957,-6.2665 -0.74749,-9.93471c0.03522,0 -0.67644,0 -2.1368,0c-0.74749,0 -1.42454,-0.13662 -2.02993,-0.41109c-0.6054,-0.27446 -0.90779,-0.8331 -0.90779,-1.67592c0,-0.36615 0.12448,-0.65883 0.37405,-0.87804c0.71166,-0.6224 1.58363,-0.9339 2.61711,-0.9339c1.92306,0 2.70577,0.05344 2.34994,0.16031h3.68521c0.14148,0 0.4712,-0.02672 0.98795,-0.08015c0.51614,-0.05344 0.9169,-0.08015 1.20169,-0.08015c1.13914,0 1.85141,0.35765 2.1368,1.06992c0.14148,0.286 0.21374,0.55378 0.21374,0.80214c0,0.78453 -0.72988,1.24844 -2.18963,1.39114c-1.0681,0.03643 -2.1368,0.07165 -3.2043,0.10687c0.39166,4.24264 0.58779,8.32558 0.58779,12.24822v14.17432c0,0.21435 0.04554,0.62483 0.13784,1.23023c0.12144,0.92722 0.18277,1.83623 0.18277,2.72763c-0.03583,1.60488 -0.03583,2.85332 0,3.74472c0.07104,0.10687 0.14148,0.19492 0.21374,0.26657c1.74454,-0.24957 2.5989,-0.37344 2.56429,-0.37344c1.28184,0.00121 1.95767,0.51674 2.02933,1.55023z" data-paper-data="{&quot;origPos&quot;:null}" id="ID0.4091448332183063" fill="#ffffff" stroke="none" stroke-width="1"/><text transform="translate(213.6161,227.20288) scale(1.3743,1.3743)" font-size="40" xml:space="preserve" data-paper-data="{&quot;origPos&quot;:null}" fill="#000000" fill-rule="nonzero" stroke="none" stroke-width="1" stroke-linecap="butt" stroke-linejoin="miter" stroke-miterlimit="10" stroke-dasharray="" stroke-dashoffset="0" font-family="&quot;Microsoft YaHei&quot;, &quot;&quot;, STXihei, &quot;&quot;" font-weight="normal" text-anchor="start" style="mix-blend-mode: normal"><tspan x="0" dy="0">Tables</tspan></text></g></g></svg>