<svg version="1.1" xmlns="http://www.w3.org/2000/svg" xmlns:xlink="http://www.w3.org/1999/xlink" width="582.26844" height="392" viewBox="0,0,582.26844,392"><g transform="translate(-20.376,21)"><g data-paper-data="{&quot;isPaintingLayer&quot;:true}" fill="#7500d4" fill-rule="nonzero" stroke="none" stroke-width="0" stroke-linecap="butt" stroke-linejoin="miter" stroke-miterlimit="10" stroke-dasharray="" stroke-dashoffset="0" font-family="none" font-weight="none" font-size="none" text-anchor="none" style="mix-blend-mode: normal"><path d="M24.70001,362c0,0 -5.85138,-65.32563 -3.94049,-107.15906c3.41357,-74.73047 15.69049,-116.75449 15.69049,-191.66872c0,-24.26351 -11.75,-62.17222 -11.75,-62.17222c0,0 6.89002,-10 11.3,-10c4.76121,0 12.2,10 12.2,10c0,0 10.44444,36.68585 10.44444,60.16667c0,76.44897 -16.60799,119.35333 -19.6797,195.65654c-1.65277,41.05575 9.23526,105.17679 9.23526,105.17679c0,0 -8.39011,9 -11.2,9c-6.36128,0 -12.29999,-9 -12.29999,-9z" data-paper-data="{&quot;origPos&quot;:null}"/><path d="M102.70001,361c0,0 -5.85137,-65.32563 -3.94049,-107.15906c3.41358,-74.73047 15.69048,-116.75449 15.69048,-191.66872c0,-24.26351 -11.75,-62.17222 -11.75,-62.17222c0,0 6.89003,-10 11.3,-10c4.76121,0 12.2,10 12.2,10c0,0 10.44445,36.68585 10.44445,60.16666c0,76.44898 -16.60799,119.35333 -19.6797,195.65654c-1.65277,41.05575 9.23525,105.17679 9.23525,105.17679c0,0 -8.43879,8 -13.19999,8.00001c-4.40997,0 -10.3,-8 -10.3,-8z" data-paper-data="{&quot;origPos&quot;:null}"/><path d="M179.70001,362c0,0 -5.85137,-65.32563 -3.94048,-107.15906c3.41358,-74.73047 15.69048,-116.75449 15.69048,-191.66872c0,-24.26351 -11.75,-62.17222 -11.75,-62.17222c0,0 6.89003,-10 11.29999,-10c4.76121,0 12.20001,10 12.20001,10c0,0 10.44445,36.68585 10.44445,60.16666c0,76.44898 -16.60799,119.35333 -19.6797,195.65654c-1.65277,41.05575 9.23525,105.17679 9.23525,105.17679c0,0 -8.04853,9 -13.20001,9.00001c-4.01971,0 -10.29999,-9 -10.29999,-9z" data-paper-data="{&quot;origPos&quot;:null}"/><path d="M257.7,361c0,0 -5.85137,-65.32563 -3.94049,-107.15906c3.41358,-74.73047 15.69049,-116.75449 15.69049,-191.66872c0,-24.26351 -11.75,-62.17222 -11.75,-62.17222c0,0 8.1095,-10 13.3,-10c3.98068,0 10.2,10 10.2,10c0,0 10.44445,36.68585 10.44445,60.16666c0,76.44898 -16.60798,119.35333 -19.6797,195.65654c-1.65277,41.05575 9.23525,105.17679 9.23525,105.17679c0,0 -6.82906,10 -11.2,10c-4.80023,0 -12.3,-9.99999 -12.3,-9.99999z" data-paper-data="{&quot;origPos&quot;:null}"/><path d="M335.70001,361c0,0 -5.85137,-65.32563 -3.94049,-107.15906c3.41357,-74.73047 15.69049,-116.75449 15.69049,-191.66872c0,-24.26351 -11.75,-62.17222 -11.75,-62.17222c0,0 6.89003,-11 11.3,-11c4.76121,0 12.2,11 12.2,11c0,0 10.44444,36.68585 10.44444,60.16666c0,76.44898 -16.60798,119.35333 -19.6797,195.65654c-1.65277,41.05575 9.23526,105.17679 9.23526,105.17679c0,0 -7.4388,9 -12.2,9.00001c-4.40997,0 -11.3,-9 -11.3,-9z" data-paper-data="{&quot;origPos&quot;:null}"/><path d="M413.70001,360c0,0 -5.85137,-65.32563 -3.94048,-107.15906c3.41358,-74.73047 15.69048,-116.75449 15.69048,-191.66872c0,-24.26351 -11.75,-62.17222 -11.75,-62.17222c0,0 8.1095,-11 13.3,-11c3.98068,0 10.2,11 10.2,11c0,0 10.44445,36.68585 10.44445,60.16666c0,76.44898 -16.60799,119.35333 -19.6797,195.65654c-1.65277,41.05575 9.23525,105.17679 9.23525,105.17679c0,0 -6.82906,9 -11.20001,9c-4.80023,0 -12.29999,-8.99999 -12.29999,-8.99999z" data-paper-data="{&quot;origPos&quot;:null}"/><path d="M490.70001,340c0,0 -5.85137,-65.32563 -3.94048,-107.15906c3.41357,-74.73047 15.69049,-116.75449 15.69049,-191.66872c0,-24.26351 -11.75,-62.17222 -11.75,-62.17222h23.5c0,0 10.44444,36.68585 10.44444,60.16666c0,76.44898 -16.60798,119.35333 -19.6797,195.65654c-1.65277,41.05575 9.23526,105.17679 9.23526,105.17679z" data-paper-data="{&quot;origPos&quot;:null}"/><path d="M568.70001,359c0,0 -5.85137,-65.32563 -3.94049,-107.15906c3.41358,-74.73047 15.69049,-116.75449 15.69049,-191.66872c0,-24.26351 -11.75,-62.17222 -11.75,-62.17222h23.5c0,0 10.44444,36.68585 10.44444,60.16666c0,76.44898 -16.60798,119.35333 -19.6797,195.65654c-1.65277,41.05575 9.23526,105.17679 9.23526,105.17679z" data-paper-data="{&quot;origPos&quot;:null}"/></g></g></svg>