<svg version="1.1" xmlns="http://www.w3.org/2000/svg" xmlns:xlink="http://www.w3.org/1999/xlink" width="98.20213" height="98.21545" viewBox="0,0,98.20213,98.21545"><g transform="translate(-190.89894,-130.89228)"><g data-paper-data="{&quot;isPaintingLayer&quot;:true}" fill="none" fill-rule="nonzero" stroke="none" stroke-width="none" stroke-linecap="butt" stroke-linejoin="miter" stroke-miterlimit="10" stroke-dasharray="" stroke-dashoffset="0" font-family="none" font-weight="none" font-size="none" text-anchor="none" style="mix-blend-mode: normal"><path d="M199.80884,216.79419c0.15772,0.3091 0.29179,0.62849 0.39469,0.95959c0.15433,0.49661 -0.34953,1.2323 -0.86539,1.29809l-0.19825,0.29737c0.45506,0.6902 0.74968,1.23912 0.79332,1.33044c0.17592,0.36807 -0.51116,0.66304 -0.86539,0.86539c-0.97764,0.55847 -1.97934,1.14797 -3.07935,1.38804c-0.44561,0.09726 -0.92723,-0.16719 -1.29808,-0.4327c-0.0534,-0.03823 -0.10601,-0.07611 -0.15785,-0.11366c-0.62031,0.51805 -1.57984,0.98729 -2.60088,0.23853c-1.74464,-1.2794 -0.75091,-2.49195 -0.75091,-2.49195l0.47471,-1.28968c0.05415,-0.04924 0.10759,-0.09956 0.16043,-0.15079c0.00681,-0.75004 0.25786,-1.63849 0.73076,-2.80358c0.15343,-0.378 0.51117,-0.66304 0.86539,-0.86539c0.38984,-0.22269 1.84963,-1.27186 3.08117,-1.38821c0.11599,-0.23747 0.23466,-0.47207 0.35602,-0.7043c-0.60928,-0.64049 -0.60928,-1.57002 -0.60928,-1.57002v-4.32695h0.01956c0.05784,-7.71927 0.1744,-15.4423 -0.67795,-23.1134c-0.32804,-2.95236 -0.09539,-7.12226 -1.70938,-9.6693c-1.65495,-3.3099 -1.09379,-7.2805 -1.09379,-10.91953c0,-7.78851 0,-15.57703 0,-23.36554c0,-4.8433 5.52753,-7.11982 9.44367,-7.7297c10.55136,-1.64323 21.44915,-0.92421 32.09507,-0.92421c6.8279,0 14.44192,-0.94602 21.20207,0c6.34782,0.88832 12.62938,2.00637 18.93214,2.98128c3.47952,0.57992 6.16005,1.48314 9.09505,3.43981c0.86539,0.57692 2.08075,0.82742 2.59618,1.73078c0.74346,1.30302 0.71451,2.91688 0.9634,4.39629c0.30625,1.82038 1.45082,3.61923 1.66618,5.53302c0.7003,6.22292 0.06459,12.86808 0.06459,19.13062c0,3.27958 0.27034,6.68561 0,9.95199c-0.22743,2.74795 -1.45682,5.09287 -1.87454,7.69862c-1.12605,7.02426 2.55716,16.13774 -1.35529,22.38908c-1.84222,1.84222 -3.69737,2.75478 -5.82413,3.35972c0.37838,1.03794 0.71659,2.09915 1.20086,3.23966c0.02911,0.06856 0.06029,0.13666 0.09331,0.20439c1.26045,-0.14725 2.67481,0.25664 4.18722,1.36696c0.36766,0.26992 0.33543,0.85248 0.4327,1.29808c0.62106,2.84515 0.42946,4.40041 -1.801,6.63087c-0.16461,0.16461 -0.34741,0.27792 -0.54337,0.3485c-2.13116,1.95374 -3.55094,2.19381 -6.52019,0.01397c-1.20954,-0.88797 -0.93002,-4.02938 -0.43269,-5.26256c0.32937,-0.81671 0.72876,-1.54758 1.18962,-2.16877c-0.30477,-0.44125 -0.59191,-0.89153 -0.80335,-1.382c-0.55944,-1.29775 -0.80497,-2.31496 -1.23786,-3.38193c-4.58646,0.87282 -9.1605,1.84985 -13.89241,1.55768c-5.08655,-0.31406 -10.17542,-1.24541 -15.24456,-1.8574c-0.00011,0.00088 -0.00019,0.00132 -0.00019,0.00132c-0.42985,3.00894 -1.025,5.80624 -1.85821,8.73159c-0.26633,0.93505 -0.65451,1.84371 -0.79897,2.80516c-0.00178,0.0118 0.0191,0.17545 0.04711,0.40584c0.35049,0.07412 0.81565,0.29835 1.15249,0.41063l3.19528,1.79967c0,0 0.25279,2.14866 -1.89587,2.40145c-2.14865,0.25279 -2.40144,-1.89587 -2.40144,-1.89587l-0.26628,1.79967c-1.95672,-0.65224 -2.37432,-0.60062 -4.07549,-2.91785c-0.62924,-0.85712 -0.0713,-2.13673 0.08275,-3.18881c0.52891,-3.61206 1.93644,-7.06332 2.49856,-10.71678c-1.73002,-0.07438 -3.45911,-0.08165 -5.18558,-0.10814c-0.068,2.94988 -0.55109,5.52224 -0.9219,8.48072c-0.10642,0.84906 0.35388,2.14062 0.06459,2.93684c-0.45846,1.26185 -1.08908,2.84121 -2.36445,3.26059c-2.37887,0.78226 -4.72548,0.63366 -7.15485,0.63366h-1.29809c0,0 0.55712,0.84499 -1.22567,-0.38068c-1.78279,-1.22567 1.22567,-3.94627 1.22567,-3.94627h1.29809c1.15386,0 2.33623,-0.25493 3.46157,0c0.29133,0.066 0.33846,0.6793 0.63367,0.63367c0.40316,-0.06232 0.46412,-0.79188 0.86539,-0.86539c0.23072,-0.04226 0.18191,0.89362 0.23172,0.66441c0.2822,-1.29863 -0.09991,-2.66757 0.0646,-3.98629c0.32988,-2.64434 0.74493,-4.91934 0.79564,-7.58847c-0.43124,-0.02981 -0.86222,-0.06537 -1.29293,-0.10802c-3.00566,-0.29762 -5.91851,-1.35459 -8.91014,-1.73919c-5.63179,-0.724 -11.79103,0.00841 -17.48427,0.00841c-0.35881,0 -0.71761,0 -1.07642,0c-1.65891,2.25282 -2.97534,4.25257 -4.00858,6.73092zM275.08849,207.83046c1.23729,-0.82486 2.1911,-0.23233 2.66659,0.21884c1.69698,-0.39805 3.23849,-0.99098 4.7922,-2.54469c0.79276,2.27308 0.23172,-2.7774 0.23172,-2.79715c0,-2.88464 0,-5.76927 0,-8.65391c0,-3.05064 -0.36976,-6.41667 0.14377,-9.42941c0.35337,-2.07312 1.40481,-3.94607 1.58702,-6.14763c0.27034,-3.26639 0,-6.67241 0,-9.95199c0,-6.25391 1.13319,-13.75863 -0.3681,-19.81196c-0.39691,-1.60037 -1.09389,-3.23 -1.36268,-4.85167c-0.07076,-0.42687 -0.33356,-1.02246 0,-1.29808c0.27915,-0.23066 1.20873,0.76838 0.9634,0.50204c-2.49417,-2.70779 -6.54467,-3.92647 -10.00241,-4.50276c-1.71306,-0.31426 -3.34807,-0.15236 -5.05096,-0.4347c-4.39989,-0.7295 -8.75115,-1.83818 -13.16983,-2.48771c-2.2013,-0.32359 -4.7077,0 -6.92312,0c-4.75965,0 -9.5193,0 -14.27895,0c-9.75566,0 -19.58067,-0.44021 -29.27983,0.6278c-1.3535,0.14904 -3.9516,0.0417 -5.10407,0.4693c-0.94244,0.34967 -1.61898,2.41718 -2.59617,2.59618c-0.23071,0.04226 -0.15116,-0.88471 -0.23172,-0.66442c-0.1486,0.40637 0,0.8654 0,1.29809c0,7.35582 0,14.71164 0,22.06746c0,3.28991 -0.79876,7.41105 0.63699,10.28254c1.56311,3.52646 1.7145,7.29953 2.13973,11.12654c0.82252,7.40271 0.76795,14.84705 0.71271,22.29315c0.5704,0 1.1408,0 1.7112,0c0.25331,-0.06051 0.53615,-0.07272 0.84187,0c0.58201,0 1.16401,0 1.74602,0c6.00435,0 12.37635,-0.6617 18.33286,0.07563c2.70475,0.3348 5.35697,1.38735 8.06156,1.65516c4.81864,0.47713 9.67999,0.10069 14.53109,0.6397c9.47077,1.0532 18.76301,3.03785 28.21372,0.72298c0.07161,-0.01754 0.14288,-0.03467 0.21381,-0.0514c0.14327,-0.32845 0.40364,-0.65594 0.84161,-0.94793z" data-paper-data="{&quot;origPos&quot;:null}" fill="#302020" stroke-width="0.5"/><path d="M275.12339,207.86629c-0.43797,0.29199 -0.69927,0.62037 -0.84254,0.94882c-0.07093,0.01673 -0.14234,0.03399 -0.21395,0.05153c-9.45071,2.31487 -18.76986,0.34289 -28.24063,-0.71031c-4.8511,-0.53901 -9.73265,-0.1639 -14.55129,-0.64103c-2.70459,-0.26781 -5.36703,-1.32444 -8.07178,-1.65924c-5.95651,-0.73733 -12.34181,-0.08594 -18.34616,-0.08594c-0.58201,0 -1.1648,-0.00088 -1.74681,-0.00088c-0.30572,-0.07272 -0.58892,-0.06092 -0.84223,-0.00041c-0.5704,0 -1.14149,-0.00082 -1.71189,-0.00082c0.05524,-7.4461 0.10011,-14.90947 -0.72241,-22.31218c-0.42523,-3.82701 -0.57825,-7.61319 -2.14136,-11.13965c-1.43575,-2.87149 -0.63557,-7.00402 -0.63557,-10.29393c0,-7.35582 0.00853,-14.72974 0.00853,-22.08556c0,-0.43269 -0.14803,-0.89247 0.00057,-1.29884c0.08056,-0.22029 0.0008,0.70696 0.23151,0.6647c0.97719,-0.179 1.65585,-2.24909 2.59829,-2.59876c1.15247,-0.4276 3.75307,-0.32291 5.10657,-0.47195c9.69916,-1.06801 19.5505,-0.6414 29.30616,-0.6414c4.75965,0 9.53821,0.00027 14.29786,0.00027c2.21542,0 4.73,-0.32115 6.9313,0.00244c4.41868,0.64953 8.78292,1.76575 13.18281,2.49525c1.70289,0.28234 3.34124,0.12338 5.0543,0.43764c3.45774,0.57629 7.5147,1.80256 10.00887,4.51035c0.24533,0.26634 -0.76595,-0.67505 -1.0451,-0.44439c-0.33356,0.27562 0.011,0.81364 0.08176,1.24051c0.26879,1.62167 0.96831,3.2554 1.36522,4.85577c1.50129,6.05333 0.37415,13.57754 0.37415,19.83145c0,3.27958 0.27013,6.69693 -0.00021,9.96332c-0.18221,2.20156 -1.23512,4.08159 -1.58849,6.15471c-0.51353,3.01274 -0.14733,6.38783 -0.14733,9.43847c0,2.88464 -0.0039,5.77568 -0.0039,8.66032c0,0.01975 0.55967,5.07205 -0.23309,2.79897c-1.55371,1.55371 -3.09841,2.15031 -4.79539,2.54836c-0.47549,-0.45117 -1.43051,-1.04248 -2.6678,-0.21762z" data-paper-data="{&quot;noHover&quot;:false,&quot;origItem&quot;:[&quot;Path&quot;,{&quot;applyMatrix&quot;:true,&quot;segments&quot;:[[[275.08849,207.83046],[0,0],[1.23729,-0.82486]],[[277.75508,208.0493],[-0.47549,-0.45117],[1.69698,-0.39805]],[[282.54728,205.50461],[-1.55371,1.55371],[0.79276,2.27308]],[[282.779,202.70746],[0,0.01975],[0,-2.88464]],[[282.779,194.05355],[0,2.88464],[0,-3.05064]],[[282.92277,184.62414],[-0.51353,3.01274],[0.35337,-2.07312]],[[284.50979,178.47651],[-0.18221,2.20156],[0.27034,-3.26639]],[[284.50979,168.52452],[0,3.27958],[0,-6.25391]],[[284.14169,148.71256],[1.50129,6.05333],[-0.39691,-1.60037]],[[282.77901,143.86089],[0.26879,1.62167],[-0.07076,-0.42687]],[[282.77901,142.56281],[-0.33356,0.27562],[0.27915,-0.23066]],[[283.74241,143.06485],[0.24533,0.26634],[-2.49417,-2.70779]],[[273.74,138.56209],[3.45774,0.57629],[-1.71306,-0.31426]],[[268.68904,138.12739],[1.70289,0.28234],[-4.39989,-0.7295]],[[255.51921,135.63968],[4.41868,0.64953],[-2.2013,-0.32359]],[[248.59609,135.63968],[2.21542,0],[-4.75965,0]],[[234.31714,135.63968],[4.75965,0],[-9.75566,0]],[[205.03731,136.26748],[9.69916,-1.06801],[-1.3535,0.14904]],[[199.93324,136.73678],[1.15247,-0.4276],[-0.94244,0.34967]],[[197.33707,139.33296],[0.97719,-0.179],[-0.23071,0.04226]],[[197.10535,138.66854],[0.08056,-0.22029],[-0.1486,0.40637]],[[197.10535,139.96663],[0,-0.43269],[0,7.35582]],[[197.10535,162.03409],[0,-7.35582],[0,3.28991]],[[197.74234,172.31663],[-1.43575,-2.87149],[1.56311,3.52646]],[[199.88207,183.44317],[-0.42523,-3.82701],[0.82252,7.40271]],[[200.59478,205.73632],[0.05524,-7.4461],[0.5704,0]],[[202.30598,205.73632],[-0.5704,0],[0.25331,-0.06051]],[[203.14785,205.73632],[-0.30572,-0.07272],[0.58201,0]],[[204.89387,205.73632],[-0.58201,0],[6.00435,0]],[[223.22673,205.81195],[-5.95651,-0.73733],[2.70475,0.3348]],[[231.28829,207.46711],[-2.70459,-0.26781],[4.81864,0.47713]],[[245.81938,208.10681],[-4.8511,-0.53901],[9.47077,1.0532]],[[274.0331,208.82979],[-9.45071,2.31487],[0.07161,-0.01754]],[[274.24691,208.77839],[-0.07093,0.01673],[0.14327,-0.32845]],[[275.08852,207.83046],[-0.43797,0.29199],[0,0]]],&quot;closed&quot;:true,&quot;fillColor&quot;:[0,0,0],&quot;strokeWidth&quot;:0.5}]}" fill="#009070" stroke-width="0.25"/></g></g></svg>