<svg version="1.1" xmlns="http://www.w3.org/2000/svg" xmlns:xlink="http://www.w3.org/1999/xlink" width="123.47922" height="99.61742" viewBox="0,0,123.47922,99.61742"><g transform="translate(-178.26039,-130.19129)"><g data-paper-data="{&quot;isPaintingLayer&quot;:true}" fill="none" fill-rule="nonzero" stroke="none" stroke-width="none" stroke-linecap="butt" stroke-linejoin="miter" stroke-miterlimit="10" stroke-dasharray="" stroke-dashoffset="0" font-family="none" font-weight="none" font-size="none" text-anchor="none" style="mix-blend-mode: normal"><path d="M202.44017,203.16025l-1,0.66667l-0.18945,0.06766l-0.08405,0.14709l-0.25733,0.06433c-0.4081,0.82595 -1.25905,1.394 -2.24267,1.394c-0.18573,0 -0.36673,-0.02025 -0.54091,-0.05867l-1.48799,-0.2976c-0.19209,0.05567 -0.58679,-0.0422 -1.05696,-0.21139l-0.73776,-0.14755l0.01922,-0.09608c-0.95495,-0.28702 -1.83506,-0.62379 -2.84706,-1.0575c0,0 -1.85082,-0.79321 -1.51847,-2.61693l-0.17838,-0.25865l-0.84011,-2.24029l-0.76571,-1.27619l-0.27201,-0.89374l-0.3725,-0.85674l-0.20973,-1.25839l-0.8512,-1.70241l-0.04876,-0.02786l-0.03483,-0.13932l-0.06231,-0.12461l-0.24922,-1.12151l-0.13392,-0.53568l-0.22147,-0.66441l-0.06164,-0.80138l-0.19494,-0.77975v-0.30599l-0.05469,-0.24612l-0.27864,-1.11456v-0.13932l-0.03115,-0.14019l0.03115,-0.04673v-0.84533l-0.10492,-0.5246l-0.03388,-0.06777l-0.24922,-1.12151l-0.27864,-1.11456v-0.13932l-0.03115,-0.14019l0.02204,-0.03306l-0.06764,-0.10629l-0.33333,-1l-0.06164,-0.80138l-0.19494,-0.77975v-1.30599l-0.05469,-0.24612l-0.27864,-1.11456v-0.05114l-0.18405,-0.73618v-0.61553l-0.14929,-0.59715v-0.85528l-0.07675,-0.23025l-0.06164,-0.80138l-0.19494,-0.77975v-0.38447l-0.18405,-0.73618v-0.61553l-0.14929,-0.59715v-4.71781l-0.18405,-0.73618v-0.61553l-0.14929,-0.59715v-0.71781l-0.18405,-0.73618v-0.61553l-0.14929,-0.59715v-7.85528l-0.07675,-0.23025l-0.06164,-0.80138l-0.19494,-0.77975v-5.66667l0.625,-2.5l0.17142,-0.09795l0.01095,-0.19713l1.95656,-1.67705l0.66667,-0.33333l0.35131,-0.07807l0.30362,-0.19321l0.6629,-0.22097l1.01551,-0.50775l0.53753,-0.11945l0.48586,-0.25913l1.14704,-0.28676l0.81783,-0.27261l0.19547,-0.01504l0.17299,-0.09226l0.80086,-0.20021l0.55062,-0.27531l0.02786,-0.04876l0.13932,-0.03483l0.12461,-0.06231l1.12151,-0.24922l1.11456,-0.27864h0.13932l0.14019,-0.03115l0.04673,0.03115h0.7249l0.65536,-0.16384l2.25323,-0.64378l0.69702,-0.02323l0.67658,-0.16915h3.83824l1.18118,-0.23624l0.08268,0.00394l0.07591,-0.033l4,-0.66667l0.41657,0.03333l0.40542,-0.10136h3.58619l1.39485,-0.23248l1.13961,-0.2849h0.12192l0.11018,-0.05219l1.66667,-0.33333l0.49744,0.02369l0.48314,-0.12078h1.91952l1.59182,-0.2653l0.41657,0.03333l0.40542,-0.10136h0.71781l0.73618,-0.18405h0.61553l0.59715,-0.14929h1.25285l1.59182,-0.2653l0.41657,0.03333l0.40542,-0.10136h3.17157l1.18118,-0.23624l0.49744,0.02369l0.48314,-0.12078h0.18861l0.23025,-0.07675l0.80138,-0.06164l0.77975,-0.19494h15.34043l0.04673,-0.03115l0.14019,0.03115h0.13932l1.11456,0.27864l1.12151,0.24922l0.12461,0.06231l0.13932,0.03483l0.02786,0.04876l1.04154,0.52077l1.95656,1.67705l0.01095,0.19713l0.17142,0.09795l0.36816,1.47265l0.24974,0.49948l0.04876,0.02786l0.03483,0.13932l0.06231,0.12461l0.02402,0.10811l0.19709,0.03942l0.67516,1.06096l0.33992,0.19424l0.13997,0.55987l0.22845,0.35899l0.33333,1l0.02423,0.31502l0.13525,0.28554l0.2433,1.21652l0.30283,0.75707l0.37788,0.56683l0.22462,0.62893l0.35855,0.56343l0.5543,1.6629l0.02852,0.05705l0.04876,0.02786l0.03483,0.13932l0.06231,0.12461l0.24922,1.12151l0.27864,1.11456v0.13932l0.03115,0.14019l-0.02204,0.03306l0.06764,0.10629l0.33333,1l0.06164,0.80138l0.19494,0.77975v12.63932l0.05469,0.24612l0.27864,1.11456v0.13932l0.03115,0.14019l-0.03115,0.04673v1.39157l0.13747,0.54989l0.27261,0.81783l0.06164,0.80138l0.19494,0.77975v1.91952l0.14653,0.8792l0.24149,1.08672l0.27864,1.11456v0.13932l0.03115,0.14019l-0.03115,0.04673v0.05823l0.18405,0.73618v0.61553l0.14929,0.59715v0.30599l0.05469,0.24612l0.27864,1.11456v0.13932l0.03115,0.14019l-0.03115,0.04673v1.19571l0.41008,1.23025l0.06164,0.80138l0.19494,0.77975v1.30599l0.05469,0.24612l0.27864,1.11456v0.13932l0.03115,0.14019l-0.03115,0.04673v4.68086l0.03115,0.04673l-0.03115,0.14019v0.13932l-0.27864,1.11456l-0.24922,1.12151l-0.06231,0.12461l-0.03483,0.13932l-0.04876,0.02786l-0.02852,0.05705l-0.22097,0.6629l-0.19321,0.30362l-0.07807,0.35131l-0.0385,0.077l0.09439,0.34609l-0.33054,0.5509l-0.15582,0.62327l-0.33196,0.18969l-0.50751,0.84584l-1,1l-0.42704,0.25622l-0.335,0.3685l-0.24355,0.16237l-0.32775,0.54625l-1,1l-0.68921,0.41353l-0.40354,0.34589l-0.90725,0.90725l-0.84584,0.50751l-0.18969,0.33196l-0.62327,0.15582l-0.5509,0.33054l-0.36886,-0.1006l-0.95696,0.23924h-0.30599l-0.24612,0.05469l-1.11456,0.27864h-0.13932l-0.14019,0.03115l-0.04673,-0.03115h-6.67376l-0.77975,-0.19494l-0.80138,-0.06164l-0.23025,-0.07675h-0.85528l-0.59715,-0.14929h-0.61553l-0.73618,-0.18405h-1.05114l-0.48314,-0.12078l-0.49744,0.02369l-1.18118,-0.23624h-12.5049l-0.30652,-0.07663l-0.31366,0.03802l-5.02445,-0.62806h-2.02204l-0.27314,-0.06829l-0.27901,0.0377l-3,-0.33333l-0.07518,-0.02792l-0.07977,0.00825l-2.25601,-0.32229l-2.64714,-0.29413h-3.38974l-0.59715,-0.14929h-0.61553l-0.73618,-0.18405h-2.39157l-0.04673,0.03115l-0.14019,-0.03115h-0.13932l-1.11456,-0.27864l-0.01329,-0.00295z" data-paper-data="{&quot;origPos&quot;:null}" fill="#f00060" stroke-width="0.5"/><g data-paper-data="{&quot;origPos&quot;:null}"><path d="M281.00065,171.83743l-1.06121,-1.10701c1.57005,-1.57005 1.87096,-3.31488 3.19125,-5.29532c1.07584,-1.37259 1.26714,-3.07954 1.91114,-4.67641c0.8405,-2.08414 1.33324,-1.8582 2.28086,-3.31225c1.49326,-2.29127 1.85392,-5.14947 3.8471,-7.14265c1.94395,-1.94396 6.20984,-0.75914 7.92895,0.50292c0.89831,0.65948 0.77472,2.10163 0.97484,3.19791c0.52916,2.89887 0.13037,6.00067 0.55917,8.9401c0.30274,2.16584 0.22187,4.2643 0.4324,6.42254c0.43225,4.4313 1.84052,7.03515 -1.4227,11.11418c-0.53493,0.66866 -4.21186,-0.32863 -4.85167,-0.49729c-0.90752,-0.23923 -1.73187,-0.67974 -2.53358,-1.11181c0.02943,0.18771 0.02943,0.31101 0.02943,0.31101v0.86539c0,3.4571 -0.43703,6.75614 -0.68994,10.12088c0.05609,0.06747 0.10931,0.13344 0.15924,0.19447c0.84019,1.02693 1.69048,2.1051 2.15046,3.34967c0.27256,0.73747 -0.66045,2.60581 -1.75375,3.67645c0.08424,0.31759 0.13399,0.60334 0.13399,0.83174c0,1.88575 0.44884,4.68506 0,6.49043c-0.17409,0.70026 -0.35819,1.41003 -0.59212,2.09889c0.22213,6.07213 0.50942,12.1348 0.57729,18.23779h0.01483v0.99596l0.96374,0.57269l-1.16915,1.96751c-0.24486,0.58373 -0.78158,1.22349 -1.95806,1.22349c-1.28814,0 -1.80932,-0.76698 -2.02019,-1.3876c-0.09256,-0.24085 -0.14328,-0.50244 -0.14328,-0.77588c0,-5.99777 -0.24985,-11.94965 -0.48105,-17.9033c-1.05177,-0.01304 -2.05756,-0.12342 -2.51033,-0.17253c-2.47311,-0.26821 -4.83686,-0.76687 -7.1686,-1.68051c-3.96188,-1.55237 -6.69835,-4.90729 -11.04209,-4.90729c-0.23565,0 -0.4625,-0.03768 -0.67486,-0.10733c-1.50036,1.58191 -3.10413,3.23287 -5.04818,4.07093c-3.69049,1.59092 -7.67405,1.22875 -11.58477,1.22875c-4.87045,0 -9.68339,-0.21596 -14.50096,-0.54591c0.22201,0.5044 0.22201,0.9786 0.22201,0.9786c0,4.15632 -0.63384,8.88042 0,12.98086c0.03583,0.2318 0.00101,-0.70668 0.23172,-0.66442c0.40127,0.0735 0.48225,0.72528 0.86539,0.86539c0.21122,0.07724 -0.42506,-0.51878 -0.23172,-0.63367c1.02251,-0.60761 4.45209,0 5.62504,0l2.68178,0.98817c0,0 1.17532,1.81639 -0.64108,2.9917c-1.05385,0.68191 -1.8919,0.35674 -2.40982,-0.03646l0.36911,0.38354c-2.71317,0 -5.86529,0.41663 -8.45293,-0.63367c-1.24399,-0.50492 -1.94506,-1.98522 -2.36445,-3.26059c-0.45055,-1.37014 0,-2.88464 0,-4.32695c0,-2.88464 0,-5.76927 0,-8.65391c0,0 0,-0.66343 0.36738,-1.25552c-1.89462,-0.15005 -3.79243,-0.31361 -5.6972,-0.48453c-0.24228,-0.02174 -0.48493,-0.04443 -0.72791,-0.06795c0,4.49693 0,8.99385 0,13.49078c0,0.72196 0.43613,4.36713 0,4.75965c-3.22253,2.90027 -6.00037,2.42007 -9.45463,1.29144c-0.37322,0.08404 -0.82131,0.05813 -1.3496,-0.16828c-1.98855,-0.85223 -1.13631,-2.84079 -1.13631,-2.84079l3.53809,-1.20021c0.64999,0.21667 1.23141,0.67554 1.91202,0.75437c0.71637,0.08297 1.65355,-0.50993 2.16348,0c0,-1.29809 0,-2.59617 0,-3.89426c0,-4.22349 0,-8.44699 0,-12.67048c-5.60484,-0.66289 -11.317,-1.3868 -16.87512,-0.74308c-0.6806,0.07882 -1.2341,0.65509 -1.91202,0.75437c-2.18249,0.3196 -4.53523,0.11102 -6.74188,0.11102l-0.28047,-1.36166c-0.87461,0.8052 -2.13446,0.38525 -2.13446,0.38525l1.72177,-2.38884l-0.35347,-1.71608c0,0 0.63631,0.2121 1.08225,0.75441c1.69237,0.00463 3.69938,0.33578 5.33797,0.11098c1.13026,-0.15506 2.14916,-0.82806 3.28032,-0.97642c7.30791,-0.95844 15.05581,0.65463 22.31667,1.30612c7.88161,0.70719 15.63466,1.29005 23.54903,1.29005c2.8595,0 6.50054,0.63765 9.18461,-0.50204c2.29199,-0.9732 4.01765,-3.21167 5.72801,-4.92203c0.50884,-0.0293 0.61306,-0.8347 0.77543,-1.31782c0.77139,-2.29519 1.18707,-4.26864 1.18707,-6.67166c0,-3.10886 -0.73664,-5.81391 -1.14753,-8.89556c-0.88298,-6.62234 -1.83138,-13.21861 -2.89086,-19.81485c-0.72164,-4.55692 -1.0607,-9.20449 -1.29443,-13.81172c-0.11241,-2.21585 0.04817,-4.9785 -0.95664,-7.00611c-0.50662,-1.02231 -1.66278,-1.60027 -2.25343,-2.57644c-0.53229,-0.87971 -0.27969,-2.40071 -1.22787,-2.95865c-2.19215,-1.28992 -5.1687,-0.75385 -7.59309,-0.75197c-4.99145,-0.00923 -9.99888,0.5825 -14.97863,0.91444c-10.34959,0.68988 -20.72326,1.30815 -31.00127,2.77644c-4.65208,0.66459 -9.18592,1.12901 -13.64662,2.61591c-1.19865,0.39955 -3.98389,0.54283 -4.35636,1.9117c-0.41141,1.51193 0.01072,4.0782 0.03677,5.61964c0.09193,5.44092 0.36263,10.83627 0.96404,16.24893c1.05023,9.45208 1.36862,19.73403 3.70004,28.97148c0.49206,1.94964 1.2903,3.89319 2.05824,5.80969c0.39745,0.04746 0.8293,0.2355 1.26116,0.66735c1.5298,1.5298 0,3.05961 0,3.05961c-0.19142,0.19142 -0.3795,0.3846 -0.56449,0.57954c-0.09505,0.13788 -0.21498,0.27011 -0.36526,0.39149c-1.47963,1.6128 -2.76429,3.34323 -3.99229,5.18967c-0.34834,0.52376 -0.89389,1.64153 -1.46746,2.56028c0.03413,0.04393 0.06749,0.08856 0.10003,0.1339c0.20052,0.2794 0.27456,0.6269 0.25648,1.01463c0.2185,0.22553 0.42318,0.46315 0.60891,0.71614c1.03134,1.40483 -0.93117,3.52733 -2.16348,4.75965c-0.30597,0.30597 -0.86736,0.04122 -1.29809,0c-0.05222,-0.005 -0.1044,-0.01039 -0.15653,-0.01619c-0.32449,0.20874 -0.78346,0.02053 -1.19789,-0.20803c-2.29478,-0.55023 -4.22986,-1.94772 -4.37366,-4.29094c-0.22339,-0.46634 -0.12273,-0.96464 0.11956,-1.42818c0.01471,-0.0682 0.03073,-0.137 0.04809,-0.20642c1.01877,-1.10165 1.76963,-2.53294 3.0563,-3.30494c0.41863,-0.25118 0.96985,0.00026 1.4383,0.26369c0.51252,-0.81798 0.978,-1.71847 1.4292,-2.39377c1.13783,-1.70295 2.329,-3.32984 3.64895,-4.86272c-0.89078,-2.28567 -1.92206,-4.61634 -2.51251,-6.95576c-2.42437,-9.60573 -2.84263,-20.14918 -3.93409,-29.97235c-0.69599,-6.26393 -0.96717,-12.51815 -1.02643,-18.81683c-0.02238,-2.37864 -0.1734,-5.73265 2.0933,-7.32549c5.43934,-3.82229 13.29394,-4.11086 19.62387,-5.01514c10.39148,-1.4845 20.87936,-2.11401 31.34328,-2.81151c5.07288,-0.33815 10.16027,-0.9073 15.24518,-0.92287c2.79694,-0.00218 6.43366,-0.55747 8.96475,0.97401c2.5859,1.56464 2.57104,3.32719 3.96448,5.69526c0.25318,0.43026 0.96735,0.44781 1.20813,0.88513c0.26172,0.47533 1.71823,4.03383 1.89095,4.95056c1.11842,5.93635 0.59383,12.24301 1.57271,18.24069c1.17645,7.32446 1.84996,14.78721 3.19359,22.07368c0.93342,5.0619 1.61165,10.77927 -0.57581,15.54414h0.17727v0.29303c5.03759,1.12653 9.03337,5.16577 14.27412,6.17126c1.13244,0.21727 2.50928,0.41013 3.68811,0.24612c-0.06405,-1.85283 -0.11994,-3.70697 -0.15958,-5.56384c-0.59748,0.46762 -1.65431,0.99188 -2.74525,0.08276c-1.66203,-1.38502 -0.47486,-2.76723 -0.47486,-2.76723l0.63367,-1.06636c0.58546,-0.90575 1.23983,-1.69048 1.93873,-2.44041c-0.09775,-0.80832 0.11791,-1.56222 0.67888,-2.2293c0.22368,-3.796 0.7721,-7.46866 0.7721,-11.33194v-0.86539c0,0 -0.00001,-0.80996 0.49557,-1.4387c-1.07799,0.04658 -2.24913,0.23853 -3.09175,0.14062c-0.34092,-0.03962 -0.62833,-0.43774 -0.96339,-0.36336l-2.57156,1.71437c-0.22245,0.15303 -0.47497,0.26553 -0.74687,0.32682c-0.62526,0.16739 -1.53847,0.16307 -2.25018,-0.8695c-0.02129,-0.03034 -0.04181,-0.06126 -0.06155,-0.09272c-0.55203,-0.86395 -0.41478,-1.58655 -0.12931,-2.10014l0.77616,-2.32849l1.47152,0.49051l1.11164,-0.74109l0.21019,0.31529c0.27417,-0.09941 0.55128,-0.18979 0.83084,-0.27112l-0.18036,-0.18815l-3.49025,-0.3114c0,0 0.35158,-1.40628 1.63028,-1.62886zM283.52151,173.22528c0.06336,0.2034 0.09198,0.40443 0.1013,0.5851c3.02443,-0.73722 6.29101,-0.44446 9.19867,0.84172c1.60411,0.70957 2.96433,1.3012 4.72686,1.56362c-0.0239,-0.01855 -0.04703,-0.03892 -0.06936,-0.06124c-0.50994,-0.50993 0.05948,-1.44477 0,-2.16348c-0.28305,-3.4201 -0.60649,-7.02691 -1.12787,-10.42169c-0.39064,-2.67781 -0.4468,-5.34568 -0.54978,-8.0472c-0.02532,-0.66414 -0.1201,-1.33934 -0.34399,-1.96534c-0.85402,0.36597 -2.57204,0.50471 -2.91925,0.85191c-0.22115,0.22114 0.81707,-0.35963 0.93561,-0.07021c0.45508,1.11109 -0.88411,2.23555 -1.41547,3.31225c-0.80636,1.63392 -2.13443,2.55041 -3.00144,4.02383c-0.98754,1.67827 -1.17034,4.28534 -2.32586,6.1607c-1.25994,1.88992 -1.73619,3.6662 -3.20942,5.39002zM299.06541,176.22751c0.54958,-0.02873 0.9349,-0.07302 0.57704,-0.07302c-0.18227,0 -0.37802,0.03257 -0.57704,0.07302z" fill="#302020" stroke-width="0.5"/><path d="M283.48933,173.26354c1.47323,-1.72382 1.94215,-3.50773 3.20209,-5.39765c1.15552,-1.87536 1.35693,-4.55848 2.34447,-6.23675c0.86701,-1.47342 2.22628,-2.39342 3.03264,-4.02734c0.53136,-1.0767 1.84683,-2.10407 1.39175,-3.21516c-0.11854,-0.28942 -1.13395,0.19407 -0.9128,-0.02707c0.34721,-0.3472 2.07577,-0.48269 2.92979,-0.84866c0.22389,0.626 0.32326,1.30348 0.34858,1.96762c0.10298,2.70152 0.1834,5.40193 0.57404,8.07974c0.52138,3.39478 0.82638,7.05239 1.10943,10.47249c0.05948,0.71871 -0.51403,1.65636 -0.00409,2.16629c0.02233,0.02232 0.04555,0.04264 0.06945,0.06119c-1.76253,-0.26242 -3.13767,-0.84788 -4.74178,-1.55745c-2.90766,-1.28618 -6.21626,-1.58809 -9.24069,-0.85087c-0.00932,-0.18067 -0.03951,-0.38296 -0.10287,-0.58636z" data-paper-data="{&quot;noHover&quot;:false,&quot;origItem&quot;:[&quot;Path&quot;,{&quot;applyMatrix&quot;:true,&quot;segments&quot;:[[[283.52151,173.22528],[0,0],[0.06336,0.2034]],[[283.62281,173.81038],[-0.00932,-0.18067],[3.02443,-0.73722]],[[292.82148,174.6521],[-2.90766,-1.28618],[1.60411,0.70957]],[[297.54834,176.21572],[-1.76253,-0.26242],[-0.0239,-0.01855]],[[297.47898,176.15448],[0.02233,0.02232],[-0.50994,-0.50993]],[[297.47898,173.991],[0.05948,0.71871],[-0.28305,-3.4201]],[[296.35111,163.56931],[0.52138,3.39478],[-0.39064,-2.67781]],[[295.80133,155.52211],[0.10298,2.70152],[-0.02532,-0.66414]],[[295.45734,153.55677],[0.22389,0.626],[-0.85402,0.36597]],[[292.53809,154.40868],[0.34721,-0.3472],[-0.22115,0.22114]],[[293.4737,154.33847],[-0.11854,-0.28942],[0.45508,1.11109]],[[292.05823,157.65072],[0.53136,-1.0767],[-0.80636,1.63392]],[[289.05679,161.67455],[0.86701,-1.47342],[-0.98754,1.67827]],[[286.73093,167.83525],[1.15552,-1.87536],[-1.25994,1.88992]],[[283.52151,173.22527],[1.47323,-1.72382],[0,0]]],&quot;closed&quot;:true,&quot;fillColor&quot;:[0,0,0],&quot;strokeWidth&quot;:0.5}]}" fill="#ffffff" stroke-width="0.25"/><path d="M242.94365,150.8858c-0.03324,0.27426 -0.09726,0.50926 -0.18366,0.71054l0.19938,-0.10549c0,0.57693 0,1.15386 0,1.73078c-0.19839,1.47114 -0.44615,3.0487 -1.30897,4.25665c-1.54763,2.16668 -2.7945,4.22067 -5.18147,5.69534c-2.14365,1.32435 -5.24366,-1.43734 -6.9904,-2.21531c-2.19201,-0.97628 -2.46758,-0.45859 -4.80647,-1.7705c-2.35944,-1.32344 -4.26543,-3.79759 -6.43366,-5.42347c-2.2943,-1.72042 -4.81393,-3.20929 -7.20048,-4.80033c0,0 -1.80012,-1.20008 -0.60004,-3.0002c1.20008,-1.80012 3.00021,-0.60004 3.00021,-0.60004c2.38656,1.59104 4.90618,3.0799 7.20049,4.80033c2.27954,1.70936 4.33786,4.32037 6.81712,5.71102c1.02832,0.5768 2.32147,0.50088 3.39845,0.98073c1.42366,0.63432 2.62429,1.73253 4.0863,2.27262c0.48598,0.17953 1.17557,0.09748 1.52849,-0.2818c0.22515,-0.24197 -0.59463,-0.53694 -0.503,-0.85451c0.19992,-0.69289 0.83833,-1.17366 1.2575,-1.76049c0.59989,-0.83984 2.20597,-2.074 1.40898,-3.01004c0,-0.57693 0,-1.15386 0,-1.73078l2.42382,-3.01315c0,0 2.14775,0.26034 1.88742,2.40809z" fill="#302020" stroke-width="0.5"/><path d="M225.65155,165.3371c0,-1.19486 0.96862,-2.16347 2.16348,-2.16347c1.19486,0 2.16348,0.96862 2.16348,2.16347c0,1.19486 -0.96862,2.16348 -2.16348,2.16348c-1.19486,0 -2.16348,-0.96862 -2.16348,-2.16348z" fill="#302020" stroke-width="0.5"/><path d="M234.30546,166.20249c0,-1.19486 0.96862,-2.16348 2.16347,-2.16348c1.19486,0 2.16348,0.96862 2.16348,2.16348c0,1.19486 -0.96862,2.16348 -2.16348,2.16348c-1.19486,0 -2.16347,-0.96862 -2.16347,-2.16348z" fill="#302020" stroke-width="0.5"/><path d="M246.40435,191.62607c0.10274,0.39738 0.08073,0.88066 -0.18639,1.45305c-0.91491,1.96051 -2.87542,1.0456 -2.87542,1.0456l-1.24939,-1.94611c-0.07302,-2.07903 -0.37629,-4.12417 -0.47946,-6.1786c-0.01725,-0.34346 0.33536,-0.69742 0.19767,-1.01254c-0.47002,-1.07568 -1.60299,-1.71534 -2.40449,-2.57302c-0.73459,-0.78608 -1.05007,-1.9971 -1.96798,-2.55833c-5.41796,-3.31263 -13.19635,0.49086 -18.459,2.24508c0,0 -2.05246,0.68415 -2.73661,-1.3683c-0.68415,-2.05245 1.3683,-2.73661 1.3683,-2.73661c5.99589,-1.99863 14.87831,-6.05332 21.01601,-2.30063c1.20242,0.73517 2.89768,2.64836 3.94068,3.76447c0.8015,0.85768 1.90968,1.50852 2.40449,2.57303c1.36819,2.94344 1.33455,6.4129 1.43159,9.59292z" fill="#302020" stroke-width="0.5"/></g></g></g></svg>