<svg version="1.1" xmlns="http://www.w3.org/2000/svg" xmlns:xlink="http://www.w3.org/1999/xlink" width="90.71074" height="99.06544" viewBox="0,0,90.71074,99.06544"><g transform="translate(-194.64463,-130.46728)"><g data-paper-data="{&quot;isPaintingLayer&quot;:true}" fill="none" fill-rule="nonzero" stroke="none" stroke-width="none" stroke-linecap="butt" stroke-linejoin="miter" stroke-miterlimit="10" stroke-dasharray="" stroke-dashoffset="0" font-family="none" font-weight="none" font-size="none" text-anchor="none" style="mix-blend-mode: normal"><path d="M280.57894,211.25121c-0.11372,-0.01797 -0.22011,-0.01976 -0.30794,0.01183c-0.06404,0.02303 -0.12512,0.05094 -0.18366,0.08301l0.32363,0.10788c0.05552,-0.06783 0.11202,-0.13513 0.16797,-0.20272zM281.47666,212.15364c0.36992,0.00493 -0.44665,-0.18412 -0.98766,-0.32812l-0.11221,0.33663c0.36838,-0.00195 0.73742,-0.01335 1.09987,-0.00851zM282.53346,207.2017c0.74039,0.32331 1.53297,0.93364 2.49719,1.89786c1.02465,1.02465 -0.64461,4.19718 -1.30147,5.13078c-1.0337,0.72208 -1.90496,1.76726 -3.1011,2.16622c-0.68411,0.22818 -1.42511,-0.23678 -2.12147,-0.42429c-3.35874,-0.90445 -5.31766,-1.46199 -4.95776,-5.80635c0.05052,-0.60983 0.78465,-0.96517 1.29809,-1.29809c1.0753,-0.69721 2.18105,-1.41363 3.40541,-1.78899c-0.21828,-0.50922 -0.52622,-0.98552 -0.91221,-1.37151c-1.06142,-1.06142 -2.39499,-1.53967 -3.68088,-2.1508c-4.31775,2.03918 -11.06328,0.77918 -15.61675,0.7742c-2.53783,-0.0029 -5.08309,-0.01199 -7.63075,-0.04645c-0.08877,5.14649 -1.96454,9.57165 -2.61811,14.67483c-0.19748,1.54195 0.02521,3.29137 0.02521,4.85208c0,0.34132 0,0.68263 0,1.02394c0.49796,0.05628 1.25235,0.36066 1.73078,0.27414h1.29809c0,0 2.38916,4.0748 0.23892,4.31372c-2.15024,0.23892 -0.23892,0.01324 -0.23892,0.01324h-1.29809c-2.77719,-0.15555 -4.14207,-0.41947 -6.05773,-3.02887c-0.38162,-0.51983 -0.00001,-3.21878 0,-3.89425c0.00006,-3.63524 0.4716,-6.93807 1.36268,-10.47672c0.26218,-1.04116 1.11041,-2.73951 1.23349,-3.80223c0.15479,-1.33648 0.02081,-2.68962 0.0021,-4.03611c-2.49135,-0.06772 -4.9823,-0.17004 -7.46817,-0.3249c0.74622,5.14454 0.54257,10.29172 0.54293,15.52677c0.00014,1.97864 0.44298,5.92102 -0.92997,7.53216c-2.43034,2.85197 -6.10019,2.8563 -9.36227,1.61355c-0.67193,-0.25599 -1.93771,-1.07295 -2.85456,-1.67429c-0.33806,0.03296 -0.7286,-0.02514 -1.17336,-0.23041c-1.96435,-0.90663 -1.05773,-2.87097 -1.05773,-2.87097l4.0114,-0.90564c1.49611,0.97552 3.21633,2.3077 5.05731,2.35598c0.45594,0.01196 0.90024,-0.65573 1.29809,-0.43269c0.3202,0.17951 -0.28005,1.42374 -0.11664,1.09503c1.27187,-2.55838 0.80086,-5.90641 0.80052,-8.64567c-0.00058,-4.67064 0.13676,-9.13241 -0.64908,-13.70004c-5.64261,-0.5095 -11.2445,-1.3467 -16.75048,-2.72319c0,0 -2.09888,-0.52472 -1.57416,-2.6236c0.09015,-0.36059 0.22677,-0.64375 0.39121,-0.86543c-0.44489,-0.02799 -0.90397,-0.02838 -1.37169,-0.01375c0.03257,0.16267 0.05049,0.34164 0.05049,0.53851c0,2.16348 -2.16348,2.16347 -2.16348,2.16347c-0.86539,0 -1.83355,-0.40902 -2.59617,0c-0.27619,0.14814 -0.127,0.64558 -0.33788,0.87743c-0.95608,1.0512 -2.20642,1.7915 -3.28922,2.71165c-2.51065,2.13351 -5.93849,4.31477 -7.83992,7.04314c-0.06592,0.09458 0.0644,-0.015 0.227,-0.12474c0.10462,-0.15958 0.27017,-0.32544 0.51466,-0.49088c0.42407,-0.28697 0.96483,0.17691 1.48251,0.36659c0.44151,-0.00466 0.86122,-0.01917 1.26304,-0.02938c0.4429,-0.05497 0.88392,-0.09577 1.02076,-0.00738c1.76409,0.03899 3.2046,0.45103 4.73097,2.72646c0.33128,0.49386 -0.13388,1.21663 -0.4327,1.73078c-0.70592,1.21461 -1.42949,2.4983 -2.53157,3.36953c-1.57587,1.24578 -4.12331,-0.82862 -5.62482,-2.16327c-0.75849,-0.56545 -0.93435,-1.21834 -0.89394,-1.77161c-1.28028,-0.47451 -2.32465,-1.29558 -3.43323,-2.55554c-1.3366,-1.51912 1.15335,-4.63759 2.15283,-5.61409c2.87848,-2.81232 6.62296,-6.91004 10.65167,-9.02266c-0.65043,-0.24397 -1.25298,-0.6081 -1.78614,-1.14126c-0.49968,-0.7984 -1.17743,-1.50995 -1.49906,-2.3952c-1.31572,-3.62136 1.67389,-6.53471 2.59618,-9.51929c0.39367,-1.27396 0.01126,-2.72611 0.49203,-3.96982c0.31083,-0.80406 1.29054,-1.18578 1.71379,-1.93677c1.32585,-2.35252 2.57683,-5.20395 3.67297,-7.68546c2.09609,-4.74527 3.60663,-9.73934 6.29728,-14.22377c4.10113,-6.78976 9.41085,-12.06405 15.06362,-17.56381c2.87914,-2.8012 5.74515,-6.24548 9.53942,-7.84189c3.71719,-1.56398 5.9111,3.09026 7.12741,5.5229c0.74462,1.89101 2.47595,3.21788 3.68997,4.8618c2.32511,3.14843 4.48302,6.71311 6.55977,10.04999c1.4379,2.31039 1.78721,4.79951 2.85038,7.28022c2.11016,4.9237 4.21396,9.71202 5.67916,14.86603c1.92651,6.77672 4.56923,13.27647 6.02461,20.17478c0.35249,1.67077 0.89965,4.31322 0.55255,6.46537c0.0747,0.04373 0.14814,0.08552 0.21975,0.1212c2.01277,1.00275 4.7749,2.88021 5.44293,5.17933c0.20821,0.71657 0.36685,1.34458 0.46233,1.89839zM270.43003,199.39902c0,0 -0.68415,-2.05246 1.36831,-2.7366c0.02031,-0.00677 0.04047,-0.01327 0.06051,-0.01951c-0.03895,-0.72863 -0.0599,-1.46021 -0.22686,-2.16684c-1.6022,-6.78098 -4.05597,-13.22296 -5.96274,-19.93022c-1.61653,-5.68629 -4.41712,-10.7739 -6.34646,-16.33332c-0.44725,-1.28877 -0.51812,-2.69934 -1.05014,-3.95549c-0.79919,-1.88697 -2.87293,-3.55572 -3.96337,-5.30213c-0.7516,-1.20372 -1.18231,-2.58912 -1.93507,-3.79212c-1.57997,-2.52497 -3.74613,-4.31325 -5.19235,-6.92312c-0.59506,-1.19013 -1.44194,-3.15553 -2.46122,-4.0944c-0.26635,-0.24534 0.73269,0.68425 0.50203,0.96339c-0.27562,0.33355 -0.91677,-0.20451 -1.29808,0c-0.27619,0.14813 -0.127,0.64557 -0.33788,0.87743c-1.34195,1.47544 -3.18525,2.82106 -4.63352,4.23013c-5.87619,5.71714 -11.69947,11.10549 -15.9213,18.19739c-2.53266,4.2211 -3.94648,8.94893 -5.92003,13.41679c-0.89659,2.02974 -2.09166,3.85665 -2.93544,5.91774c-0.79689,1.94654 -2.37797,3.22822 -3.19601,5.03257c-0.06851,0.15113 0.43007,-0.2295 0.49203,-0.07556c0.9597,2.3845 -2.36925,5.57662 -2.7072,8.03997c-0.05451,0.39733 -0.37472,4.17016 0.34274,2.113c0.28846,0.28847 0.46224,0.80307 0.8654,0.86539c0.29521,0.04564 0.34233,-0.56767 0.63367,-0.63367c1.40668,-0.31867 2.88464,0 4.32695,0c3.65307,0 7.06777,1.42514 10.75351,1.71884l1.40763,0.04684c0,0 2.12858,-0.38701 2.51559,1.74157c0.18455,1.01506 -0.20295,1.63408 -0.65889,2.00394c9.61432,1.30871 19.41531,1.39267 29.09538,1.40276c3.89488,0.00426 8.54816,0.67379 12.58661,0.27967c-0.05478,-0.30295 -0.11073,-0.60517 -0.20382,-0.88444z" data-paper-data="{&quot;origPos&quot;:null}" fill="#302020" stroke-width="0.5"/><path d="M270.46423,199.43547c0.09309,0.27927 0.14867,0.58184 0.20345,0.88479c-4.03845,0.39412 -8.70171,-0.26828 -12.59659,-0.27254c-9.68007,-0.01009 -19.52189,-0.09095 -29.13621,-1.39966c0.45594,-0.36986 0.84335,-0.98891 0.6588,-2.00397c-0.38701,-2.12858 -2.52006,-1.74344 -2.52006,-1.74344l-1.40948,-0.04777c-3.68574,-0.2937 -7.11207,-1.72733 -10.76514,-1.72733c-1.44231,0 -2.92297,-0.32153 -4.32965,-0.00286c-0.29134,0.066 -0.33841,0.67937 -0.63362,0.63373c-0.40316,-0.06232 -0.57792,-0.57808 -0.86638,-0.86655c-0.71746,2.05716 -0.3987,-1.71752 -0.34419,-2.11485c0.33795,-2.46335 3.66292,-5.66172 2.70322,-8.04622c-0.06196,-0.15394 -0.56066,0.22647 -0.49215,0.07534c0.81804,-1.80435 2.39691,-3.09079 3.1938,-5.03733c0.84378,-2.06109 2.03619,-3.89697 2.93278,-5.92671c1.97355,-4.46786 3.39194,-9.22822 5.9246,-13.44932c4.22183,-7.0919 10.08719,-12.50735 15.96338,-18.22449c1.44827,-1.40907 3.29927,-2.75447 4.64122,-4.22991c0.21088,-0.23186 0.06206,-0.72926 0.33825,-0.87739c0.38131,-0.20451 1.02443,0.33381 1.30005,0.00026c0.23066,-0.27914 -0.76933,-1.20887 -0.50298,-0.96353c1.01928,0.93887 1.87109,2.90519 2.46615,4.09532c1.44622,2.60987 3.62482,4.40295 5.20479,6.92792c0.75276,1.203 1.18988,2.59258 1.94148,3.7963c1.09044,1.74641 3.17427,3.42556 3.97346,5.31253c0.53202,1.25615 0.60752,2.67455 1.05477,3.96332c1.92934,5.55942 4.73281,10.68224 6.34934,16.36853c1.90677,6.70726 4.35025,13.16822 5.95245,19.9492c0.16696,0.70663 0.18676,1.43949 0.22571,2.16812c-0.02004,0.00624 -0.04024,0.01279 -0.06055,0.01956c-2.05246,0.68414 -1.37066,2.73896 -1.37066,2.73896z" data-paper-data="{&quot;noHover&quot;:false,&quot;origItem&quot;:[&quot;Path&quot;,{&quot;applyMatrix&quot;:true,&quot;segments&quot;:[[270.43003,199.39902],[[271.79834,196.66242],[-2.05246,0.68414],[0.02031,-0.00677]],[[271.85885,196.64291],[-0.02004,0.00624],[-0.03895,-0.72863]],[[271.63199,194.47607],[0.16696,0.70663],[-1.6022,-6.78098]],[[265.66925,174.54585],[1.90677,6.70726],[-1.61653,-5.68629]],[[259.32279,158.21253],[1.92934,5.55942],[-0.44725,-1.28877]],[[258.27265,154.25704],[0.53202,1.25615],[-0.79919,-1.88697]],[[254.30928,148.95491],[1.09044,1.74641],[-0.7516,-1.20372]],[[252.37421,145.16279],[0.75276,1.203],[-1.57997,-2.52497]],[[247.18186,138.23967],[1.44622,2.60987],[-0.59506,-1.19013]],[[244.72064,134.14527],[1.01928,0.93887],[-0.26635,-0.24534]],[[245.22267,135.10866],[0.23066,-0.27914],[-0.27562,0.33355]],[[243.92459,135.10866],[0.38131,-0.20451],[-0.27619,0.14813]],[[243.58671,135.98609],[0.21088,-0.23186],[-1.34195,1.47544]],[[238.95319,140.21622],[1.44827,-1.40907],[-5.87619,5.71714]],[[223.03189,158.41361],[4.22183,-7.0919],[-2.53266,4.2211]],[[217.11186,171.8304],[1.97355,-4.46786],[-0.89659,2.02974]],[[214.17642,177.74814],[0.84378,-2.06109],[-0.79689,1.94654]],[[210.98041,182.78071],[0.81804,-1.80435],[-0.06851,0.15113]],[[211.47244,182.70515],[-0.06196,-0.15394],[0.9597,2.3845]],[[208.76524,190.74512],[0.33795,-2.46335],[-0.05451,0.39733]],[[209.10798,192.85812],[-0.71746,2.05716],[0.28846,0.28847]],[[209.97338,193.72351],[-0.40316,-0.06232],[0.29521,0.04564]],[[210.60705,193.08984],[-0.29134,0.066],[1.40668,-0.31867]],[[214.934,193.08984],[-1.44231,0],[3.65307,0]],[[225.68751,194.80868],[-3.68574,-0.2937],[0,0]],[227.09514,194.85552],[[229.61073,196.59709],[-0.38701,-2.12858],[0.18455,1.01506]],[[228.95184,198.60103],[0.45594,-0.36986],[9.61432,1.30871]],[[258.04722,200.00379],[-9.68007,-0.01009],[3.89488,0.00426]],[[270.63383,200.28346],[-4.03845,0.39412],[-0.05478,-0.30295]],[[270.43001,199.39902],[0.09309,0.27927],[0,0]]],&quot;closed&quot;:true,&quot;fillColor&quot;:[0,0,0],&quot;strokeWidth&quot;:0.5}]}" fill="#9070e0" stroke-width="0.25"/></g></g></svg>